<svg width="164" height="28" viewBox="0 0 164 28" fill="none" xmlns="http://www.w3.org/2000/svg">
<path d="M113.483 18.3565C114.033 18.0687 114.539 17.5489 115.003 16.7945L117.782 18.1919C117.203 19.3611 116.349 20.2439 115.22 20.8389C114.091 21.4339 112.871 21.7308 111.559 21.7308C110.594 21.7308 109.682 21.5674 108.824 21.2395C107.965 20.9128 107.213 20.4358 106.566 19.8122C105.919 19.1887 105.408 18.4343 105.032 17.5515C104.656 16.6687 104.468 15.6628 104.468 14.5324C104.468 13.5408 104.642 12.6087 104.989 11.7363C105.336 10.8639 105.819 10.1056 106.436 9.46132C107.054 8.81706 107.801 8.3115 108.679 7.94465C109.557 7.5778 110.517 7.39502 111.559 7.39502C112.62 7.39502 113.58 7.58298 114.439 7.9602C115.298 8.33743 116.031 8.85725 116.639 9.52225C117.247 10.1872 117.71 10.9845 118.028 11.9165C118.346 12.8485 118.506 13.8791 118.506 15.0095V15.5448H108.549C108.626 16.4963 108.969 17.2754 109.577 17.8795C110.185 18.4848 110.913 18.7869 111.762 18.7869C112.359 18.7882 112.933 18.6443 113.483 18.3565ZM109.561 11.1439C109.04 11.6196 108.712 12.2743 108.577 13.1065H114.395C114.241 12.155 113.893 11.4706 113.353 11.0545C112.813 10.6384 112.205 10.4297 111.53 10.4297C110.738 10.431 110.082 10.6682 109.561 11.1439Z" fill="#A5ADBA"/>
<path d="M119.721 11.5312C120.049 10.6394 120.488 9.88494 121.038 9.2705C121.588 8.65606 122.234 8.18939 122.977 7.87309C123.72 7.5555 124.516 7.39735 125.365 7.39735C126.176 7.39735 126.928 7.56068 127.623 7.88864C128.318 8.21531 128.916 8.65735 129.417 9.21216L129.475 9.18235V0.0810547H133.527V21.4064H129.735L129.619 19.9196L129.561 19.8898C129.116 20.3849 128.537 20.8166 127.823 21.1835C127.109 21.5503 126.318 21.7331 125.45 21.7331C124.62 21.7331 123.829 21.5788 123.078 21.2716C122.324 20.9644 121.665 20.5029 121.094 19.8885C120.525 19.274 120.071 18.5248 119.734 17.6433C119.396 16.7605 119.227 15.7351 119.227 14.5646C119.229 13.4342 119.393 12.4231 119.721 11.5312ZM124.193 17.4203C124.762 18.1346 125.51 18.4911 126.436 18.4911C127.362 18.4911 128.1 18.1294 128.65 17.4061C129.2 16.6827 129.475 15.7261 129.475 14.5361C129.475 13.3461 129.19 12.3998 128.621 11.6959C128.052 10.992 127.323 10.6407 126.436 10.6407C125.452 10.6407 124.69 11.0024 124.149 11.7257C123.609 12.449 123.339 13.3862 123.339 14.5361C123.339 15.7442 123.624 16.7061 124.193 17.4203Z" fill="#A5ADBA"/>
<path d="M142.948 24.4841C143.363 24.2754 143.696 23.9889 143.947 23.6221C144.198 23.2552 144.376 22.8287 144.482 22.3426C144.588 21.8565 144.641 21.3367 144.641 20.7806V20.0961C144.622 20.0961 144.607 20.0909 144.598 20.0806C144.59 20.0702 144.574 20.0663 144.555 20.0663C144.132 20.5019 143.582 20.8895 142.905 21.2265C142.23 21.5635 141.477 21.7321 140.647 21.7321C139.798 21.7321 138.997 21.5778 138.245 21.2706C137.492 20.9634 136.836 20.5122 136.277 19.9172C135.717 19.3222 135.269 18.5795 134.931 17.6863C134.593 16.7945 134.424 15.7626 134.424 14.5934C134.424 13.463 134.583 12.4571 134.902 11.5743C135.22 10.6915 135.655 9.93835 136.204 9.31354C136.753 8.68872 137.391 8.21299 138.114 7.88632C138.838 7.55965 139.605 7.39502 140.415 7.39502C141.36 7.39502 142.185 7.57391 142.89 7.93039C143.594 8.28687 144.217 8.76261 144.757 9.35761H144.815L144.902 7.72169H148.695V19.5595C148.695 20.3917 148.676 21.0463 148.637 21.5221C148.597 21.9978 148.512 22.4839 148.377 22.9791C147.972 24.5061 147.19 25.7104 146.033 26.5932C144.875 27.476 143.418 27.9167 141.662 27.9167C140.852 27.9167 140.117 27.8376 139.461 27.6782C138.805 27.52 138.212 27.3165 137.681 27.0689C137.15 26.8213 136.682 26.5387 136.277 26.2211C135.872 25.9035 135.524 25.5963 135.235 25.2995L137.203 22.8313C137.782 23.4652 138.457 23.9513 139.229 24.2884C140.001 24.6254 140.724 24.7939 141.4 24.7939C142.017 24.7965 142.533 24.6915 142.948 24.4841ZM139.359 17.4348C139.928 18.1387 140.676 18.49 141.602 18.49C142.528 18.49 143.266 18.1284 143.816 17.405C144.366 16.6817 144.641 15.725 144.641 14.535C144.641 13.345 144.356 12.3987 143.787 11.6948C143.218 10.9909 142.489 10.6397 141.602 10.6397C140.618 10.6397 139.856 11.0065 139.315 11.7402C138.775 12.4739 138.504 13.4163 138.504 14.5661C138.505 15.7743 138.789 16.7309 139.359 17.4348Z" fill="#A5ADBA"/>
<path d="M158.491 18.3565C159.041 18.0687 159.547 17.5489 160.011 16.7945L162.79 18.1919C162.211 19.3611 161.357 20.2439 160.228 20.8389C159.099 21.4339 157.879 21.7308 156.567 21.7308C155.602 21.7308 154.69 21.5674 153.832 21.2395C152.973 20.9128 152.221 20.4358 151.574 19.8122C150.928 19.1874 150.416 18.4343 150.04 17.5515C149.664 16.6687 149.476 15.6628 149.476 14.5324C149.476 13.5408 149.65 12.6087 149.997 11.7363C150.344 10.8639 150.827 10.1056 151.444 9.46132C152.062 8.81706 152.809 8.3115 153.687 7.94465C154.565 7.5778 155.525 7.39502 156.567 7.39502C157.628 7.39502 158.588 7.58298 159.447 7.9602C160.306 8.33743 161.039 8.85725 161.647 9.52225C162.255 10.1872 162.718 10.9845 163.036 11.9165C163.354 12.8485 163.514 13.8791 163.514 15.0095V15.5448H153.557C153.634 16.4963 153.977 17.2754 154.585 17.8795C155.193 18.4848 155.921 18.7869 156.77 18.7869C157.367 18.7882 157.941 18.6443 158.491 18.3565ZM154.57 11.1439C154.049 11.6196 153.721 12.2743 153.586 13.1065H159.404C159.25 12.155 158.902 11.4706 158.362 11.0545C157.822 10.6384 157.214 10.4297 156.539 10.4297C155.747 10.431 155.09 10.6682 154.57 11.1439Z" fill="#A5ADBA"/>
<path d="M32.7896 18.9704C32.5474 19.4993 32.1828 19.9685 31.6971 20.3769C31.2114 20.7852 30.6097 21.1158 29.8906 21.3647C29.1715 21.6135 28.3465 21.7393 27.4142 21.7393C26.7342 21.7393 26.0984 21.6693 25.5055 21.5293C24.9125 21.3893 24.3688 21.2104 23.8743 20.99C23.3785 20.7709 22.942 20.526 22.5636 20.2563C22.1851 19.9867 21.8697 19.7119 21.6161 19.4332L23.5677 16.9482C24.1115 17.5263 24.7183 17.9813 25.3881 18.3106C26.058 18.6398 26.7329 18.8045 27.4129 18.8045C27.9756 18.8045 28.4083 18.6852 28.7098 18.4454C29.0113 18.2056 29.1614 17.9269 29.1614 17.6067C29.1614 17.188 28.928 16.8678 28.4625 16.6487C28.2493 16.5295 28.0109 16.4297 27.7485 16.3493C27.4861 16.2689 27.2186 16.1795 26.9474 16.0797L26.0441 15.81C25.6367 15.6908 25.291 15.5702 25.0097 15.451C24.7284 15.3317 24.4609 15.2021 24.2086 15.0621C23.4706 14.6628 22.937 14.2091 22.6065 13.6997C22.2759 13.1902 22.1107 12.5174 22.1107 11.6787C22.1107 11.1395 22.2318 10.6106 22.4753 10.0921C22.7175 9.57354 23.072 9.10428 23.5387 8.68558C24.0055 8.26688 24.5782 7.93243 25.2569 7.68225C25.9369 7.43336 26.7229 7.30762 27.6173 7.30762C28.3162 7.30762 28.9381 7.37762 29.4818 7.51762C30.0256 7.65762 30.5062 7.82743 30.9238 8.02706C31.3413 8.22669 31.7059 8.45095 32.0163 8.70114C32.3266 8.95002 32.5991 9.17558 32.8325 9.37521L30.8809 11.7397C30.4923 11.3404 29.9978 10.9917 29.3948 10.6922C28.793 10.3928 28.1812 10.2437 27.5593 10.2437C27.0937 10.2437 26.7052 10.3487 26.3936 10.5574C26.0833 10.7674 25.9268 11.0409 25.9268 11.3806C25.9268 11.6398 26.029 11.855 26.2321 12.0248C26.4365 12.1947 26.6737 12.3295 26.9461 12.4293C27.1985 12.5291 27.4558 12.6237 27.7182 12.7132C27.9806 12.8026 28.2771 12.8972 28.6063 12.9971L29.5386 13.2965C30.0432 13.456 30.5491 13.6711 31.0537 13.9408C31.5583 14.2104 31.9961 14.5539 32.3645 14.9739C32.8893 15.5728 33.1516 16.3713 33.1516 17.3682C33.1542 17.9074 33.0318 18.4415 32.7896 18.9704Z" fill="#A5ADBA"/>
<path d="M33.737 11.6206C34.0864 10.743 34.5822 9.98463 35.2231 9.34556C35.8639 8.70648 36.636 8.20741 37.5392 7.84834C38.4425 7.48926 39.4378 7.30908 40.5253 7.30908C41.6127 7.30908 42.603 7.48926 43.4975 7.84834C44.3906 8.20741 45.1577 8.70648 45.7985 9.34556C46.4394 9.98463 46.9352 10.743 47.2846 11.6206C47.6341 12.4982 47.8094 13.4561 47.8094 14.4945C47.8094 15.5328 47.6341 16.4946 47.2846 17.3826C46.9352 18.2706 46.4394 19.0341 45.7985 19.6732C45.1577 20.3122 44.3906 20.8152 43.4975 21.1846C42.6043 21.5541 41.614 21.7382 40.5253 21.7382C39.4378 21.7382 38.4425 21.5541 37.5392 21.1846C36.636 20.8152 35.8639 20.3109 35.2231 19.6732C34.5822 19.0341 34.0864 18.2706 33.737 17.3826C33.3875 16.4946 33.2122 15.5315 33.2122 14.4945C33.2122 13.4561 33.3862 12.4982 33.737 11.6206ZM42.8554 17.3528C43.418 16.6048 43.7006 15.652 43.7006 14.4945C43.7006 13.3369 43.4193 12.3945 42.8554 11.6659C42.2927 10.9374 41.5156 10.5732 40.5253 10.5732C39.535 10.5732 38.7528 10.9374 38.1801 11.6659C37.6074 12.3945 37.321 13.3369 37.321 14.4945C37.321 15.652 37.6074 16.6048 38.1801 17.3528C38.7528 18.1007 39.535 18.4754 40.5253 18.4754C41.5143 18.4754 42.2915 18.1007 42.8554 17.3528Z" fill="#A5ADBA"/>
<path d="M50.167 20.1968C49.0594 19.1689 48.5068 17.647 48.5068 15.6313V7.63831H52.6144V15.8102C52.6144 16.7085 52.8137 17.3774 53.2111 17.8155C53.6085 18.2537 54.1585 18.474 54.8574 18.474C55.5172 18.474 56.066 18.2692 56.5037 17.8609C56.9415 17.4526 57.1597 16.7681 57.1597 15.8102V7.63831H61.2673V15.6015C61.2673 16.6787 61.0882 17.6068 60.7286 18.3859C60.3691 19.1637 59.8985 19.8028 59.3157 20.3018C58.7329 20.8009 58.068 21.1652 57.3199 21.3946C56.5719 21.624 55.8099 21.7394 55.0328 21.7394C52.8957 21.7381 51.2746 21.2248 50.167 20.1968Z" fill="#A5ADBA"/>
<path d="M69.6719 11.2006C69.3124 11.1202 68.997 11.0813 68.7245 11.0813C67.8314 11.0813 67.1854 11.4002 66.7868 12.0393C66.3881 12.6783 66.1901 13.5067 66.1901 14.5243V21.4089H62.0825V7.63834H65.9277L66.0147 9.34427H66.0728C66.6165 8.64556 67.1943 8.13223 67.8061 7.80297C68.418 7.47371 69.0349 7.30908 69.6555 7.30908C70.005 7.30908 70.3305 7.34926 70.632 7.42834C70.9335 7.50871 71.2198 7.6176 71.4911 7.7576L70.7342 11.5298C70.386 11.3911 70.0315 11.2809 69.6719 11.2006Z" fill="#A5ADBA"/>
<path d="M75.1925 16.2306C75.3678 16.7297 75.5949 17.1432 75.8775 17.4724C76.1588 17.8017 76.4893 18.0506 76.8678 18.2204C77.2463 18.3902 77.6399 18.4745 78.0473 18.4745C78.7071 18.4745 79.2471 18.3293 79.6646 18.0402C80.0822 17.7511 80.5149 17.2469 80.9615 16.5287L83.8164 18.2347C83.1566 19.3728 82.3164 20.24 81.2958 20.8389C80.2765 21.4378 79.1449 21.7373 77.9023 21.7373C76.97 21.7373 76.0768 21.5674 75.2215 21.2278C74.3674 20.8882 73.6143 20.4047 72.9633 19.776C72.3124 19.1473 71.7926 18.3889 71.4053 17.501C71.0168 16.613 70.8225 15.6097 70.8225 14.4923C70.8225 13.3748 71.0168 12.3715 71.4053 11.4836C71.7939 10.5956 72.3136 9.84244 72.9633 9.22281C73.6143 8.60448 74.3662 8.13003 75.2215 7.80077C76.0756 7.47151 76.97 7.30688 77.9023 7.30688C79.1449 7.30688 80.2765 7.60633 81.2958 8.20522C82.3151 8.80411 83.1553 9.67263 83.8164 10.8095L80.9615 12.5154C80.7092 12.076 80.3547 11.6417 79.898 11.2126C79.4413 10.7836 78.8244 10.5697 78.0486 10.5697C77.1163 10.5697 76.3632 10.9339 75.7905 11.6624C75.2177 12.391 74.9313 13.3334 74.9313 14.491C74.9301 15.1534 75.0171 15.7315 75.1925 16.2306Z" fill="#A5ADBA"/>
<path d="M92.5995 18.3406C93.1533 18.0515 93.663 17.5278 94.1285 16.7694L96.9253 18.1759C96.3425 19.353 95.4834 20.2409 94.3467 20.8398C93.2101 21.4387 91.9826 21.7382 90.6618 21.7382C89.6904 21.7382 88.7733 21.5735 87.9091 21.2443C87.045 20.915 86.2868 20.4367 85.6371 19.808C84.9874 19.1793 84.4714 18.4209 84.093 17.533C83.7145 16.645 83.5253 15.6326 83.5253 14.4945C83.5253 13.4963 83.7006 12.5591 84.0501 11.6802C84.3995 10.8026 84.8852 10.0391 85.5071 9.38964C86.1291 8.74149 86.881 8.23204 87.7653 7.8626C88.6484 7.49315 89.6147 7.30908 90.6643 7.30908C91.7328 7.30908 92.6992 7.49834 93.5633 7.87816C94.4275 8.25668 95.1655 8.78168 95.7773 9.44927C96.3892 10.1182 96.8547 10.9206 97.1751 11.8591C97.4955 12.7976 97.6558 13.8346 97.6558 14.9728V15.512H87.6341C87.7123 16.47 88.0567 17.253 88.6686 17.8622C89.2804 18.4715 90.0134 18.7748 90.8687 18.7748C91.4679 18.7748 92.047 18.6296 92.5995 18.3406ZM88.6522 11.0813C88.1274 11.5596 87.7981 12.2194 87.6619 13.0569H93.5179C93.3627 12.0989 93.0133 11.4106 92.4696 10.9919C91.9258 10.5732 91.314 10.3632 90.634 10.3632C89.8367 10.3632 89.177 10.603 88.6522 11.0813Z" fill="#A5ADBA"/>
<path d="M21.7643 14.9698C21.7643 13.833 21.6041 12.7959 21.2836 11.8574C20.9632 10.9202 20.4977 10.1165 19.8858 9.4489C19.274 8.78001 18.5373 8.25761 17.6731 7.87779C16.809 7.49927 15.8439 7.30872 14.7754 7.30872C13.727 7.30872 12.7607 7.49279 11.8776 7.86224C11.1156 8.18113 10.4521 8.60371 9.88437 9.13001L9.03157 13.3793L7.80409 12.8893C7.69686 13.4052 7.64136 13.938 7.64136 14.4902C7.64136 15.6271 7.83059 16.6395 8.20905 17.5274C8.58751 18.4154 9.10222 19.1737 9.75191 19.8011C10.4029 20.4298 11.1598 20.9082 12.0227 21.2374C12.8868 21.5667 13.804 21.7313 14.7741 21.7313C16.0937 21.7313 17.3224 21.4319 18.4578 20.8343C19.5932 20.2354 20.4523 19.3487 21.0351 18.1717L18.2395 16.7652C17.774 17.5235 17.2644 18.0472 16.7106 18.3363C16.1567 18.6254 15.5802 18.7706 14.9785 18.7706C14.1244 18.7706 13.3914 18.4659 12.7796 17.858C12.1678 17.25 11.8234 16.467 11.7464 15.5091H21.763V14.9698H21.7643ZM11.7767 13.0552C11.9129 12.2178 12.2422 11.5593 12.767 11.0809C13.2905 10.6026 13.9516 10.3628 14.7476 10.3628C15.4276 10.3628 16.0382 10.5728 16.5819 10.9915C17.1256 11.4102 17.475 12.0985 17.6302 13.0565H11.7767V13.0552Z" fill="#A5ADBA"/>
<path d="M7.60717 11.2002C7.24764 11.1199 6.93225 11.081 6.66102 11.081C5.76785 11.081 5.12195 11.3999 4.72456 12.0389C4.32718 12.6767 4.12785 13.5051 4.12785 14.5227V21.4047H0.0215454V7.63931H3.86546L3.9525 9.34525H4.01053C4.55425 8.64654 5.13204 8.13321 5.74388 7.80395C6.35573 7.47469 6.97136 7.31006 7.5933 7.31006C7.94275 7.31006 8.26822 7.35024 8.56847 7.42932C8.86872 7.50969 9.15509 7.61857 9.42758 7.75857L8.67065 11.5282C8.31995 11.3895 7.96545 11.2806 7.60717 11.2002Z" fill="#A5ADBA"/>
</svg>
