<svg width="1128" height="70" viewBox="0 0 1128 70" fill="none" xmlns="http://www.w3.org/2000/svg">
<path d="M166.073 26.2235C166.878 25.8124 167.618 25.0698 168.297 23.992L172.364 25.9883C171.517 27.6587 170.267 28.9198 168.615 29.7698C166.962 30.6198 165.177 31.0438 163.257 31.0438C161.845 31.0438 160.51 30.8105 159.255 30.342C157.998 29.8753 156.897 29.1938 155.95 28.3031C155.003 27.4124 154.255 26.3346 153.705 25.0735C153.155 23.8124 152.88 22.3753 152.88 20.7605C152.88 19.3438 153.135 18.0124 153.642 16.7661C154.15 15.5198 154.857 14.4364 155.76 13.5161C156.665 12.5957 157.758 11.8735 159.042 11.3494C160.327 10.8253 161.732 10.5642 163.257 10.5642C164.81 10.5642 166.215 10.8327 167.472 11.3716C168.729 11.9105 169.802 12.6531 170.692 13.6031C171.582 14.5531 172.259 15.692 172.724 17.0235C173.19 18.355 173.424 19.8272 173.424 21.442V22.2068H158.852C158.965 23.5661 159.467 24.679 160.357 25.542C161.247 26.4068 162.312 26.8383 163.554 26.8383C164.428 26.8401 165.268 26.6346 166.073 26.2235ZM160.333 15.9198C159.57 16.5994 159.09 17.5346 158.893 18.7235H167.407C167.182 17.3642 166.673 16.3864 165.882 15.792C165.092 15.1976 164.202 14.8994 163.215 14.8994C162.055 14.9013 161.095 15.2401 160.333 15.9198Z" fill="#A5ADBA"/>
<path d="M175.201 16.4731C175.681 15.1991 176.323 14.1213 177.128 13.2435C177.933 12.3657 178.878 11.6991 179.966 11.2472C181.053 10.7935 182.218 10.5676 183.46 10.5676C184.648 10.5676 185.748 10.8009 186.765 11.2694C187.782 11.7361 188.657 12.3676 189.39 13.1602L189.475 13.1176V0.115723H195.405V30.5805H189.856L189.686 28.4565L189.601 28.4139C188.951 29.1213 188.104 29.7379 187.059 30.262C186.014 30.7861 184.856 31.0472 183.586 31.0472C182.371 31.0472 181.214 30.8268 180.113 30.3879C179.011 29.949 178.046 29.2898 177.211 28.412C176.379 27.5342 175.714 26.4639 175.221 25.2046C174.726 23.9435 174.479 22.4787 174.479 20.8065C174.481 19.1916 174.721 17.7472 175.201 16.4731ZM181.745 24.8861C182.578 25.9065 183.673 26.4157 185.028 26.4157C186.383 26.4157 187.463 25.8991 188.268 24.8657C189.073 23.8324 189.475 22.4657 189.475 20.7657C189.475 19.0657 189.058 17.7139 188.225 16.7083C187.393 15.7028 186.326 15.2009 185.028 15.2009C183.588 15.2009 182.473 15.7176 181.681 16.7509C180.891 17.7842 180.496 19.1231 180.496 20.7657C180.496 22.4916 180.913 23.8657 181.745 24.8861Z" fill="#A5ADBA"/>
<path d="M209.193 34.9772C209.8 34.679 210.287 34.2698 210.655 33.7457C211.022 33.2216 211.282 32.6124 211.438 31.9179C211.593 31.2235 211.67 30.4809 211.67 29.6864V28.7087C211.642 28.7087 211.62 28.7012 211.607 28.6864C211.594 28.6716 211.572 28.6661 211.545 28.6661C210.924 29.2883 210.119 29.842 209.13 30.3235C208.142 30.805 207.04 31.0457 205.825 31.0457C204.583 31.0457 203.41 30.8253 202.31 30.3864C201.208 29.9476 200.248 29.3031 199.43 28.4531C198.61 27.6031 197.955 26.542 197.46 25.2661C196.966 23.992 196.718 22.5179 196.718 20.8475C196.718 19.2327 196.951 17.7957 197.418 16.5346C197.883 15.2735 198.52 14.1975 199.323 13.3049C200.126 12.4124 201.06 11.7327 202.118 11.2661C203.178 10.7994 204.3 10.5642 205.486 10.5642C206.868 10.5642 208.076 10.8198 209.108 11.329C210.138 11.8383 211.05 12.5179 211.84 13.3679H211.925L212.052 11.0309H217.602V27.942C217.602 29.1309 217.574 30.0661 217.517 30.7457C217.46 31.4253 217.334 32.1198 217.137 32.8272C216.544 35.0087 215.399 36.729 213.706 37.9901C212.012 39.2513 209.879 39.8809 207.31 39.8809C206.124 39.8809 205.05 39.7679 204.09 39.5401C203.13 39.3142 202.262 39.0235 201.485 38.6698C200.708 38.3161 200.023 37.9124 199.43 37.4587C198.838 37.005 198.328 36.5661 197.905 36.142L200.785 32.6161C201.633 33.5216 202.62 34.2161 203.75 34.6975C204.88 35.179 205.938 35.4198 206.927 35.4198C207.83 35.4235 208.585 35.2735 209.193 34.9772ZM203.94 24.9068C204.773 25.9124 205.868 26.4142 207.223 26.4142C208.578 26.4142 209.658 25.8976 210.463 24.8642C211.268 23.8309 211.67 22.4642 211.67 20.7642C211.67 19.0642 211.253 17.7124 210.42 16.7068C209.588 15.7012 208.521 15.1994 207.223 15.1994C205.783 15.1994 204.668 15.7235 203.876 16.7716C203.086 17.8198 202.689 19.1661 202.689 20.8087C202.69 22.5346 203.106 23.9013 203.94 24.9068Z" fill="#A5ADBA"/>
<path d="M231.938 26.2235C232.743 25.8124 233.483 25.0698 234.163 23.992L238.23 25.9883C237.382 27.6587 236.133 28.9198 234.48 29.7698C232.828 30.6198 231.043 31.0438 229.123 31.0438C227.71 31.0438 226.376 30.8105 225.12 30.342C223.863 29.8753 222.763 29.1938 221.816 28.3031C220.87 27.4105 220.121 26.3346 219.571 25.0735C219.02 23.8124 218.745 22.3753 218.745 20.7605C218.745 19.3438 219 18.0124 219.508 16.7661C220.016 15.5198 220.723 14.4364 221.625 13.5161C222.53 12.5957 223.623 11.8735 224.908 11.3494C226.193 10.8253 227.598 10.5642 229.123 10.5642C230.675 10.5642 232.08 10.8327 233.337 11.3716C234.595 11.9105 235.667 12.6531 236.557 13.6031C237.447 14.5531 238.125 15.692 238.59 17.0235C239.055 18.355 239.289 19.8272 239.289 21.442V22.2068H224.718C224.83 23.5661 225.333 24.679 226.222 25.542C227.112 26.4068 228.177 26.8383 229.42 26.8383C230.293 26.8401 231.133 26.6346 231.938 26.2235ZM226.2 15.9198C225.438 16.5994 224.958 17.5346 224.76 18.7235H233.275C233.049 17.3642 232.54 16.3864 231.75 15.792C230.96 15.1976 230.07 14.8994 229.082 14.8994C227.923 14.9013 226.961 15.2401 226.2 15.9198Z" fill="#A5ADBA"/>
<path d="M47.9847 27.1003C47.6302 27.8559 47.0967 28.5262 46.3859 29.1096C45.6751 29.6929 44.7945 30.1651 43.7422 30.5207C42.6899 30.8762 41.4825 31.0559 40.1182 31.0559C39.1231 31.0559 38.1927 30.9559 37.325 30.7559C36.4573 30.5559 35.6616 30.3003 34.9379 29.9855C34.2124 29.6725 33.5736 29.3225 33.0198 28.9374C32.4659 28.5522 32.0044 28.1596 31.6333 27.7614L34.4893 24.2114C35.285 25.0374 36.173 25.6874 37.1533 26.1577C38.1336 26.6281 39.1213 26.8633 40.1164 26.8633C40.9398 26.8633 41.573 26.6929 42.0142 26.3503C42.4554 26.0077 42.6751 25.6096 42.6751 25.1522C42.6751 24.554 42.3336 24.0966 41.6524 23.7837C41.3404 23.6133 40.9914 23.4707 40.6074 23.3559C40.2234 23.2411 39.8321 23.1133 39.4351 22.9707L38.1133 22.5855C37.517 22.4151 37.0111 22.2429 36.5995 22.0725C36.1878 21.9022 35.7964 21.717 35.4271 21.517C34.3471 20.9466 33.5662 20.2985 33.0825 19.5707C32.5988 18.8429 32.357 17.8818 32.357 16.6837C32.357 15.9133 32.5342 15.1577 32.8905 14.417C33.245 13.6762 33.7638 13.0059 34.4468 12.4077C35.1299 11.8096 35.9681 11.3318 36.9613 10.9744C37.9564 10.6188 39.1065 10.4392 40.4155 10.4392C41.4382 10.4392 42.3484 10.5392 43.1441 10.7392C43.9398 10.9392 44.6431 11.1818 45.2542 11.467C45.8653 11.7522 46.3988 12.0725 46.853 12.4299C47.3071 12.7855 47.7059 13.1077 48.0474 13.3929L45.1914 16.7707C44.6228 16.2003 43.8991 15.7022 43.0167 15.2744C42.1361 14.8466 41.2407 14.6337 40.3305 14.6337C39.6493 14.6337 39.0807 14.7837 38.6247 15.0818C38.1705 15.3818 37.9416 15.7725 37.9416 16.2577C37.9416 16.6281 38.0911 16.9355 38.3884 17.1781C38.6875 17.4207 39.0345 17.6133 39.4333 17.7559C39.8025 17.8985 40.1791 18.0337 40.5631 18.1614C40.9471 18.2892 41.381 18.4244 41.8628 18.567L43.2271 18.9948C43.9656 19.2225 44.7059 19.5299 45.4444 19.9151C46.1828 20.3003 46.8234 20.7911 47.3625 21.3911C48.1305 22.2466 48.5145 23.3874 48.5145 24.8114C48.5182 25.5818 48.3391 26.3448 47.9847 27.1003Z" fill="#A5ADBA"/>
<path d="M49.371 16.6007C49.8824 15.347 50.608 14.2636 51.5458 13.3507C52.4836 12.4377 53.6135 11.7247 54.9353 11.2118C56.2572 10.6988 57.7138 10.4414 59.3052 10.4414C60.8966 10.4414 62.3458 10.6988 63.6547 11.2118C64.9618 11.7247 66.0842 12.4377 67.0221 13.3507C67.9599 14.2636 68.6855 15.347 69.1969 16.6007C69.7083 17.8544 69.9649 19.2229 69.9649 20.7062C69.9649 22.1896 69.7083 23.5636 69.1969 24.8321C68.6855 26.1007 67.9599 27.1914 67.0221 28.1044C66.0842 29.0173 64.9618 29.7358 63.6547 30.2636C62.3476 30.7914 60.8984 31.0544 59.3052 31.0544C57.7138 31.0544 56.2572 30.7914 54.9353 30.2636C53.6135 29.7358 52.4836 29.0155 51.5458 28.1044C50.608 27.1914 49.8824 26.1007 49.371 24.8321C48.8596 23.5636 48.603 22.1877 48.603 20.7062C48.603 19.2229 48.8578 17.8544 49.371 16.6007ZM62.715 24.7896C63.5384 23.721 63.9519 22.3599 63.9519 20.7062C63.9519 19.0525 63.5403 17.7062 62.715 16.6655C61.8916 15.6247 60.7544 15.1044 59.3052 15.1044C57.8559 15.1044 56.7113 15.6247 55.8732 16.6655C55.035 17.7062 54.616 19.0525 54.616 20.7062C54.616 22.3599 55.035 23.721 55.8732 24.7896C56.7113 25.8581 57.8559 26.3933 59.3052 26.3933C60.7526 26.3933 61.8898 25.8581 62.715 24.7896Z" fill="#A5ADBA"/>
<path d="M73.4151 28.8524C71.7941 27.3838 70.9855 25.2098 70.9855 22.3301V10.9116H76.9966V22.5857C76.9966 23.869 77.2883 24.8246 77.8698 25.4505C78.4514 26.0764 79.2563 26.3913 80.2791 26.3913C81.2446 26.3913 82.0477 26.0987 82.6883 25.5153C83.3289 24.932 83.6483 23.9542 83.6483 22.5857V10.9116H89.6594V22.2875C89.6594 23.8264 89.3972 25.1524 88.8711 26.2653C88.3449 27.3764 87.6563 28.2894 86.8034 29.0024C85.9505 29.7153 84.9775 30.2357 83.8828 30.5635C82.788 30.8912 81.6729 31.0561 80.5357 31.0561C77.4083 31.0542 75.036 30.3209 73.4151 28.8524Z" fill="#A5ADBA"/>
<path d="M101.959 16.0007C101.433 15.8858 100.971 15.8303 100.572 15.8303C99.2653 15.8303 98.32 16.2858 97.7367 17.1988C97.1533 18.1118 96.8634 19.2951 96.8634 20.7488V30.584H90.8524V10.9118H96.4794L96.6068 13.3488H96.6917C97.4874 12.3507 98.333 11.6173 99.2284 11.147C100.124 10.6766 101.027 10.4414 101.935 10.4414C102.446 10.4414 102.923 10.4988 103.364 10.6118C103.805 10.7266 104.224 10.8821 104.621 11.0821L103.513 16.471C103.004 16.2729 102.485 16.1155 101.959 16.0007Z" fill="#A5ADBA"/>
<path d="M110.038 23.1864C110.294 23.8993 110.627 24.4901 111.04 24.9605C111.452 25.4308 111.935 25.7864 112.489 26.029C113.043 26.2716 113.619 26.3919 114.215 26.3919C115.181 26.3919 115.971 26.1845 116.582 25.7716C117.193 25.3586 117.827 24.6382 118.48 23.6123L122.658 26.0493C121.692 27.6753 120.463 28.9142 118.969 29.7697C117.478 30.6253 115.822 31.053 114.003 31.053C112.639 31.053 111.332 30.8105 110.08 30.3253C108.83 29.8401 107.728 29.1493 106.775 28.2512C105.823 27.353 105.062 26.2697 104.496 25.0012C103.927 23.7327 103.643 22.2993 103.643 20.703C103.643 19.1068 103.927 17.6734 104.496 16.4049C105.064 15.1364 105.825 14.0605 106.775 13.1753C107.728 12.2919 108.828 11.6142 110.08 11.1438C111.33 10.6734 112.639 10.4382 114.003 10.4382C115.822 10.4382 117.478 10.866 118.969 11.7216C120.461 12.5771 121.691 13.8179 122.658 15.4419L118.48 17.879C118.111 17.2512 117.592 16.6308 116.924 16.0179C116.256 15.4049 115.353 15.0993 114.217 15.0993C112.853 15.0993 111.751 15.6197 110.913 16.6605C110.075 17.7012 109.655 19.0475 109.655 20.7012C109.654 21.6475 109.781 22.4734 110.038 23.1864Z" fill="#A5ADBA"/>
<path d="M135.511 26.2007C136.322 25.7877 137.068 25.0396 137.749 23.9562L141.842 25.9655C140.989 27.647 139.732 28.9155 138.068 29.771C136.405 30.6266 134.609 31.0544 132.676 31.0544C131.254 31.0544 129.912 30.8192 128.647 30.3488C127.383 29.8784 126.273 29.1951 125.323 28.297C124.372 27.3988 123.617 26.3155 123.063 25.047C122.509 23.7784 122.232 22.3321 122.232 20.7062C122.232 19.2803 122.489 17.9414 123 16.6858C123.511 15.4321 124.222 14.3414 125.132 13.4136C126.043 12.4877 127.143 11.7599 128.437 11.2321C129.729 10.7044 131.143 10.4414 132.679 10.4414C134.243 10.4414 135.657 10.7118 136.922 11.2544C138.187 11.7951 139.267 12.5451 140.162 13.4988C141.057 14.4544 141.739 15.6007 142.207 16.9414C142.676 18.2821 142.911 19.7636 142.911 21.3896V22.1599H128.245C128.359 23.5284 128.863 24.647 129.759 25.5173C130.654 26.3877 131.727 26.821 132.979 26.821C133.855 26.821 134.703 26.6136 135.511 26.2007ZM129.735 15.8303C128.967 16.5136 128.485 17.4562 128.286 18.6525H136.855C136.628 17.284 136.117 16.3007 135.321 15.7025C134.526 15.1044 133.63 14.8044 132.635 14.8044C131.468 14.8044 130.503 15.147 129.735 15.8303Z" fill="#A5ADBA"/>
<path d="M31.8501 21.3854C31.8501 19.7613 31.6156 18.2798 31.1467 16.9391C30.6778 15.6002 29.9965 14.452 29.1011 13.4983C28.2058 12.5428 27.1276 11.7965 25.863 11.2539C24.5984 10.7131 23.1861 10.4409 21.6224 10.4409C20.0882 10.4409 18.6741 10.7039 17.3818 11.2317C16.2667 11.6872 15.2956 12.2909 14.4648 13.0428L13.2168 19.1131L11.4205 18.4131C11.2636 19.1502 11.1824 19.9113 11.1824 20.7002C11.1824 22.3243 11.4593 23.7706 12.0131 25.0391C12.567 26.3076 13.3202 27.3909 14.271 28.2872C15.2236 29.1854 16.3313 29.8687 17.5941 30.3391C18.8587 30.8094 20.2008 31.0446 21.6205 31.0446C23.5516 31.0446 25.3498 30.6168 27.0113 29.7631C28.6728 28.9076 29.9301 27.6409 30.783 25.9594L26.6919 23.9502C26.0107 25.0335 25.2648 25.7817 24.4544 26.1946C23.6439 26.6076 22.8002 26.815 21.9196 26.815C20.6698 26.815 19.5971 26.3798 18.7018 25.5113C17.8064 24.6428 17.3024 23.5243 17.1898 22.1557H31.8482V21.3854H31.8501ZM17.2341 18.6502C17.4334 17.4539 17.9153 16.5131 18.6833 15.8298C19.4494 15.1465 20.4168 14.8039 21.5818 14.8039C22.5768 14.8039 23.4704 15.1039 24.2661 15.702C25.0618 16.3002 25.5731 17.2835 25.8002 18.652H17.2341V18.6502Z" fill="#A5ADBA"/>
<path d="M11.1324 16.0003C10.6063 15.8855 10.1447 15.8299 9.7478 15.8299C8.44072 15.8299 7.4955 16.2855 6.91396 17.1984C6.33242 18.1095 6.04073 19.2929 6.04073 20.7466V30.5781H0.0314941V10.9132H5.65673L5.78411 13.3503H5.86903C6.66473 12.3521 7.51026 11.6188 8.40565 11.1484C9.30103 10.6781 10.202 10.4429 11.1121 10.4429C11.6235 10.4429 12.0998 10.5003 12.5392 10.6132C12.9786 10.7281 13.3976 10.8836 13.7964 11.0836L12.6887 16.4688C12.1755 16.2706 11.6567 16.1151 11.1324 16.0003Z" fill="#A5ADBA"/>
<path d="M10.476 52.876H6.21V64H4.446V52.876H0.18V51.238H10.476V52.876ZM13.7843 58.906V64H12.0923V50.968H13.7843V56.35C14.3603 55.51 15.2363 55.09 16.4123 55.09C17.4083 55.09 18.1703 55.408 18.6983 56.044C19.2383 56.68 19.5083 57.502 19.5083 58.51V64H17.8163V58.798C17.8163 57.346 17.1443 56.62 15.8003 56.62C15.1763 56.62 14.6903 56.836 14.3423 57.268C13.9943 57.688 13.8083 58.234 13.7843 58.906ZM27.0058 55.252V57.052C26.7538 57.016 26.5078 56.998 26.2678 56.998C24.6838 56.998 23.8918 57.886 23.8918 59.662V64H22.1998V55.342H23.8558V56.854C24.3838 55.75 25.2478 55.198 26.4478 55.198C26.6398 55.198 26.8258 55.216 27.0058 55.252ZM30.5033 61.948C31.0313 62.488 31.6733 62.758 32.4293 62.758C33.1853 62.758 33.8213 62.488 34.3373 61.948C34.8653 61.396 35.1293 60.634 35.1293 59.662C35.1293 58.702 34.8653 57.952 34.3373 57.412C33.8213 56.86 33.1853 56.584 32.4293 56.584C31.6733 56.584 31.0313 56.86 30.5033 57.412C29.9873 57.952 29.7293 58.702 29.7293 59.662C29.7293 60.634 29.9873 61.396 30.5033 61.948ZM29.2433 56.386C30.0833 55.51 31.1453 55.072 32.4293 55.072C33.7133 55.072 34.7693 55.51 35.5973 56.386C36.4373 57.25 36.8573 58.342 36.8573 59.662C36.8573 60.994 36.4433 62.098 35.6153 62.974C34.7873 63.838 33.7253 64.27 32.4293 64.27C31.1333 64.27 30.0713 63.838 29.2433 62.974C28.4153 62.098 28.0013 60.994 28.0013 59.662C28.0013 58.342 28.4153 57.25 29.2433 56.386ZM43.7243 55.342H45.4703L47.7203 61.858L49.6283 55.342H51.4103L48.6023 64H46.8563L44.5523 57.412L42.3023 64H40.5203L37.6763 55.342H39.5303L41.4743 61.858L43.7243 55.342ZM59.2937 67.42H57.6197V55.342H59.2577V56.692C59.5097 56.236 59.8877 55.864 60.3917 55.576C60.8957 55.288 61.4837 55.144 62.1557 55.144C63.4037 55.144 64.3757 55.57 65.0717 56.422C65.7797 57.274 66.1337 58.354 66.1337 59.662C66.1337 60.982 65.7677 62.074 65.0357 62.938C64.3157 63.802 63.3377 64.234 62.1017 64.234C61.4657 64.234 60.9017 64.102 60.4097 63.838C59.9177 63.574 59.5457 63.238 59.2937 62.83V67.42ZM64.4057 59.662C64.4057 58.786 64.1717 58.066 63.7037 57.502C63.2477 56.926 62.6297 56.638 61.8497 56.638C61.0817 56.638 60.4577 56.926 59.9777 57.502C59.5097 58.066 59.2757 58.786 59.2757 59.662C59.2757 60.562 59.5097 61.3 59.9777 61.876C60.4577 62.44 61.0817 62.722 61.8497 62.722C62.6177 62.722 63.2357 62.44 63.7037 61.876C64.1717 61.3 64.4057 60.562 64.4057 59.662ZM67.7496 61.678C67.7496 60.934 67.9896 60.34 68.4696 59.896C68.9496 59.44 69.5856 59.158 70.3776 59.05L72.7176 58.708C73.1616 58.648 73.3836 58.432 73.3836 58.06C73.3836 57.604 73.2276 57.232 72.9156 56.944C72.6036 56.656 72.1356 56.512 71.5116 56.512C70.9356 56.512 70.4796 56.674 70.1436 56.998C69.8076 57.31 69.6096 57.73 69.5496 58.258L67.9296 57.88C68.0136 57.052 68.3916 56.38 69.0636 55.864C69.7356 55.336 70.5396 55.072 71.4756 55.072C72.6996 55.072 73.6056 55.372 74.1936 55.972C74.7816 56.56 75.0756 57.316 75.0756 58.24V62.578C75.0756 63.094 75.1116 63.568 75.1836 64H73.5276C73.4676 63.64 73.4376 63.25 73.4376 62.83C73.1976 63.214 72.8436 63.55 72.3756 63.838C71.9196 64.126 71.3436 64.27 70.6476 64.27C69.7956 64.27 69.0996 64.018 68.5596 63.514C68.0196 62.998 67.7496 62.386 67.7496 61.678ZM70.8816 62.848C71.6376 62.848 72.2436 62.644 72.6996 62.236C73.1556 61.828 73.3836 61.18 73.3836 60.292V59.896L70.7376 60.292C70.3536 60.352 70.0476 60.49 69.8196 60.706C69.5916 60.922 69.4776 61.216 69.4776 61.588C69.4776 61.924 69.6036 62.218 69.8556 62.47C70.1196 62.722 70.4616 62.848 70.8816 62.848ZM79.3855 67.42H77.7115V55.342H79.3495V56.692C79.6015 56.236 79.9795 55.864 80.4835 55.576C80.9875 55.288 81.5755 55.144 82.2475 55.144C83.4955 55.144 84.4675 55.57 85.1635 56.422C85.8715 57.274 86.2255 58.354 86.2255 59.662C86.2255 60.982 85.8595 62.074 85.1275 62.938C84.4075 63.802 83.4295 64.234 82.1935 64.234C81.5575 64.234 80.9935 64.102 80.5015 63.838C80.0095 63.574 79.6375 63.238 79.3855 62.83V67.42ZM84.4975 59.662C84.4975 58.786 84.2635 58.066 83.7955 57.502C83.3395 56.926 82.7215 56.638 81.9415 56.638C81.1735 56.638 80.5495 56.926 80.0695 57.502C79.6015 58.066 79.3675 58.786 79.3675 59.662C79.3675 60.562 79.6015 61.3 80.0695 61.876C80.5495 62.44 81.1735 62.722 81.9415 62.722C82.7095 62.722 83.3275 62.44 83.7955 61.876C84.2635 61.3 84.4975 60.562 84.4975 59.662ZM89.4794 58.78H94.2134C94.1894 58.132 93.9734 57.604 93.5654 57.196C93.1574 56.776 92.5814 56.566 91.8374 56.566C91.1654 56.566 90.6134 56.788 90.1814 57.232C89.7494 57.664 89.5154 58.18 89.4794 58.78ZM94.4654 61.03L95.9234 61.534C95.6714 62.338 95.2034 62.998 94.5194 63.514C93.8354 64.018 93.0074 64.27 92.0354 64.27C90.8234 64.27 89.7914 63.856 88.9394 63.028C88.0994 62.188 87.6794 61.06 87.6794 59.644C87.6794 58.324 88.0874 57.232 88.9034 56.368C89.7194 55.504 90.6914 55.072 91.8194 55.072C93.1274 55.072 94.1474 55.486 94.8794 56.314C95.6114 57.13 95.9774 58.228 95.9774 59.608C95.9774 59.824 95.9654 60.004 95.9414 60.148H89.4254C89.4374 60.916 89.6894 61.546 90.1814 62.038C90.6854 62.53 91.3034 62.776 92.0354 62.776C93.2714 62.776 94.0814 62.194 94.4654 61.03ZM102.943 55.252V57.052C102.691 57.016 102.445 56.998 102.205 56.998C100.621 56.998 99.8293 57.886 99.8293 59.662V64H98.1373V55.342H99.7933V56.854C100.321 55.75 101.185 55.198 102.385 55.198C102.577 55.198 102.763 55.216 102.943 55.252ZM109.8 55.342H111.546L113.796 61.858L115.704 55.342H117.486L114.678 64H112.932L110.628 57.412L108.378 64H106.596L103.752 55.342H105.606L107.55 61.858L109.8 55.342ZM120.802 61.948C121.33 62.488 121.972 62.758 122.728 62.758C123.484 62.758 124.12 62.488 124.636 61.948C125.164 61.396 125.428 60.634 125.428 59.662C125.428 58.702 125.164 57.952 124.636 57.412C124.12 56.86 123.484 56.584 122.728 56.584C121.972 56.584 121.33 56.86 120.802 57.412C120.286 57.952 120.028 58.702 120.028 59.662C120.028 60.634 120.286 61.396 120.802 61.948ZM119.542 56.386C120.382 55.51 121.444 55.072 122.728 55.072C124.012 55.072 125.068 55.51 125.896 56.386C126.736 57.25 127.156 58.342 127.156 59.662C127.156 60.994 126.742 62.098 125.914 62.974C125.086 63.838 124.024 64.27 122.728 64.27C121.432 64.27 120.37 63.838 119.542 62.974C118.714 62.098 118.3 60.994 118.3 59.662C118.3 58.342 118.714 57.25 119.542 56.386ZM134.127 55.252V57.052C133.875 57.016 133.629 56.998 133.389 56.998C131.805 56.998 131.013 57.886 131.013 59.662V64H129.321V55.342H130.977V56.854C131.505 55.75 132.369 55.198 133.569 55.198C133.761 55.198 133.947 55.216 134.127 55.252ZM143.688 55.342L139.998 58.996L143.76 64H141.636L138.81 60.184L137.604 61.39V64H135.93V50.968H137.604V59.176L141.348 55.342H143.688ZM151.561 64H149.887V55.342H151.561V64ZM149.851 52.93C149.623 52.69 149.509 52.402 149.509 52.066C149.509 51.73 149.623 51.442 149.851 51.202C150.091 50.962 150.379 50.842 150.715 50.842C151.051 50.842 151.339 50.962 151.579 51.202C151.819 51.43 151.939 51.718 151.939 52.066C151.939 52.402 151.819 52.69 151.579 52.93C151.339 53.158 151.051 53.272 150.715 53.272C150.379 53.272 150.091 53.158 149.851 52.93ZM156.132 58.996V64H154.44V55.342H156.096V56.584C156.672 55.588 157.56 55.09 158.76 55.09C159.756 55.09 160.518 55.408 161.046 56.044C161.586 56.68 161.856 57.502 161.856 58.51V64H160.164V58.798C160.164 57.346 159.492 56.62 158.148 56.62C157.512 56.62 157.014 56.848 156.654 57.304C156.306 57.748 156.132 58.312 156.132 58.996ZM166.815 52.606V55.342H168.687V56.872H166.815V61.372C166.815 61.78 166.905 62.08 167.085 62.272C167.277 62.464 167.589 62.56 168.021 62.56C168.273 62.56 168.495 62.536 168.687 62.488V63.928C168.399 64.036 168.015 64.09 167.535 64.09C166.791 64.09 166.203 63.874 165.771 63.442C165.339 63.01 165.123 62.404 165.123 61.624V56.872H163.467V55.342H163.935C164.379 55.342 164.709 55.222 164.925 54.982C165.153 54.73 165.267 54.406 165.267 54.01V52.606H166.815ZM172.64 61.948C173.168 62.488 173.81 62.758 174.566 62.758C175.322 62.758 175.958 62.488 176.474 61.948C177.002 61.396 177.266 60.634 177.266 59.662C177.266 58.702 177.002 57.952 176.474 57.412C175.958 56.86 175.322 56.584 174.566 56.584C173.81 56.584 173.168 56.86 172.64 57.412C172.124 57.952 171.866 58.702 171.866 59.662C171.866 60.634 172.124 61.396 172.64 61.948ZM171.38 56.386C172.22 55.51 173.282 55.072 174.566 55.072C175.85 55.072 176.906 55.51 177.734 56.386C178.574 57.25 178.994 58.342 178.994 59.662C178.994 60.994 178.58 62.098 177.752 62.974C176.924 63.838 175.862 64.27 174.566 64.27C173.27 64.27 172.208 63.838 171.38 62.974C170.552 62.098 170.138 60.994 170.138 59.662C170.138 58.342 170.552 57.25 171.38 56.386ZM187.927 52.606V55.342H189.799V56.872H187.927V61.372C187.927 61.78 188.017 62.08 188.197 62.272C188.389 62.464 188.701 62.56 189.133 62.56C189.385 62.56 189.607 62.536 189.799 62.488V63.928C189.511 64.036 189.127 64.09 188.647 64.09C187.903 64.09 187.315 63.874 186.883 63.442C186.451 63.01 186.235 62.404 186.235 61.624V56.872H184.579V55.342H185.047C185.491 55.342 185.821 55.222 186.037 54.982C186.265 54.73 186.379 54.406 186.379 54.01V52.606H187.927ZM193.749 58.906V64H192.057V50.968H193.749V56.35C194.325 55.51 195.201 55.09 196.377 55.09C197.373 55.09 198.135 55.408 198.663 56.044C199.203 56.68 199.473 57.502 199.473 58.51V64H197.781V58.798C197.781 57.346 197.109 56.62 195.765 56.62C195.141 56.62 194.655 56.836 194.307 57.268C193.959 57.688 193.773 58.234 193.749 58.906ZM203.263 58.78H207.997C207.973 58.132 207.757 57.604 207.349 57.196C206.941 56.776 206.365 56.566 205.621 56.566C204.949 56.566 204.397 56.788 203.965 57.232C203.533 57.664 203.299 58.18 203.263 58.78ZM208.249 61.03L209.707 61.534C209.455 62.338 208.987 62.998 208.303 63.514C207.619 64.018 206.791 64.27 205.819 64.27C204.607 64.27 203.575 63.856 202.723 63.028C201.883 62.188 201.463 61.06 201.463 59.644C201.463 58.324 201.871 57.232 202.687 56.368C203.503 55.504 204.475 55.072 205.603 55.072C206.911 55.072 207.931 55.486 208.663 56.314C209.395 57.13 209.761 58.228 209.761 59.608C209.761 59.824 209.749 60.004 209.725 60.148H203.209C203.221 60.916 203.473 61.546 203.965 62.038C204.469 62.53 205.087 62.776 205.819 62.776C207.055 62.776 207.865 62.194 208.249 61.03ZM218.688 52.606V55.342H220.56V56.872H218.688V61.372C218.688 61.78 218.778 62.08 218.958 62.272C219.15 62.464 219.462 62.56 219.894 62.56C220.146 62.56 220.368 62.536 220.56 62.488V63.928C220.272 64.036 219.888 64.09 219.408 64.09C218.664 64.09 218.076 63.874 217.644 63.442C217.212 63.01 216.996 62.404 216.996 61.624V56.872H215.34V55.342H215.808C216.252 55.342 216.582 55.222 216.798 54.982C217.026 54.73 217.14 54.406 217.14 54.01V52.606H218.688ZM227.449 55.252V57.052C227.197 57.016 226.951 56.998 226.711 56.998C225.127 56.998 224.335 57.886 224.335 59.662V64H222.643V55.342H224.299V56.854C224.827 55.75 225.691 55.198 226.891 55.198C227.083 55.198 227.269 55.216 227.449 55.252ZM228.713 61.678C228.713 60.934 228.953 60.34 229.433 59.896C229.913 59.44 230.549 59.158 231.341 59.05L233.681 58.708C234.125 58.648 234.347 58.432 234.347 58.06C234.347 57.604 234.191 57.232 233.879 56.944C233.567 56.656 233.099 56.512 232.475 56.512C231.899 56.512 231.443 56.674 231.107 56.998C230.771 57.31 230.573 57.73 230.513 58.258L228.893 57.88C228.977 57.052 229.355 56.38 230.027 55.864C230.699 55.336 231.503 55.072 232.438 55.072C233.663 55.072 234.569 55.372 235.157 55.972C235.745 56.56 236.039 57.316 236.039 58.24V62.578C236.039 63.094 236.075 63.568 236.147 64H234.491C234.431 63.64 234.401 63.25 234.401 62.83C234.161 63.214 233.807 63.55 233.339 63.838C232.883 64.126 232.307 64.27 231.611 64.27C230.759 64.27 230.063 64.018 229.523 63.514C228.983 62.998 228.713 62.386 228.713 61.678ZM231.845 62.848C232.601 62.848 233.207 62.644 233.663 62.236C234.119 61.828 234.347 61.18 234.347 60.292V59.896L231.701 60.292C231.317 60.352 231.011 60.49 230.783 60.706C230.555 60.922 230.441 61.216 230.441 61.588C230.441 61.924 230.567 62.218 230.819 62.47C231.083 62.722 231.425 62.848 231.845 62.848ZM237.864 61.75L239.394 61.21C239.454 61.678 239.658 62.068 240.006 62.38C240.354 62.68 240.822 62.83 241.41 62.83C241.866 62.83 242.226 62.722 242.49 62.506C242.754 62.278 242.886 62.002 242.886 61.678C242.886 61.102 242.514 60.73 241.77 60.562L240.294 60.238C239.622 60.094 239.094 59.806 238.71 59.374C238.326 58.942 238.134 58.42 238.134 57.808C238.134 57.064 238.434 56.422 239.034 55.882C239.646 55.342 240.372 55.072 241.212 55.072C241.764 55.072 242.256 55.156 242.688 55.324C243.12 55.48 243.456 55.69 243.696 55.954C243.936 56.218 244.116 56.464 244.236 56.692C244.356 56.92 244.446 57.154 244.506 57.394L243.012 57.952C242.988 57.808 242.946 57.67 242.886 57.538C242.826 57.394 242.73 57.238 242.598 57.07C242.478 56.902 242.298 56.77 242.058 56.674C241.818 56.566 241.536 56.512 241.212 56.512C240.792 56.512 240.444 56.626 240.168 56.854C239.904 57.082 239.772 57.352 239.772 57.664C239.772 58.216 240.102 58.564 240.762 58.708L242.166 59.014C242.934 59.182 243.522 59.494 243.93 59.95C244.35 60.394 244.56 60.94 244.56 61.588C244.56 62.272 244.278 62.89 243.714 63.442C243.162 63.994 242.388 64.27 241.392 64.27C240.324 64.27 239.49 64.006 238.89 63.478C238.29 62.938 237.948 62.362 237.864 61.75ZM248.505 58.906V64H246.813V50.968H248.505V56.35C249.081 55.51 249.957 55.09 251.133 55.09C252.129 55.09 252.891 55.408 253.419 56.044C253.959 56.68 254.229 57.502 254.229 58.51V64H252.537V58.798C252.537 57.346 251.865 56.62 250.521 56.62C249.897 56.62 249.411 56.836 249.063 57.268C248.715 57.688 248.529 58.234 248.505 58.906ZM257.1 63.73C256.86 63.49 256.74 63.196 256.74 62.848C256.74 62.5 256.86 62.206 257.1 61.966C257.34 61.714 257.634 61.588 257.982 61.588C258.33 61.588 258.624 61.714 258.864 61.966C259.116 62.206 259.242 62.5 259.242 62.848C259.242 63.196 259.116 63.49 258.864 63.73C258.624 63.97 258.33 64.09 257.982 64.09C257.634 64.09 257.34 63.97 257.1 63.73Z" fill="white"/>
<g clip-path="url(#clip0_1_496)">
<path d="M982.382 14C979.955 14 978 15.9547 978 18.3823V33.6178C978 36.0453 979.955 38 982.382 38H990.64V28.6175H988.159V25.2395H990.64V22.3535C990.64 20.0861 992.106 18.0043 995.483 18.0043C996.85 18.0043 997.861 18.1355 997.861 18.1355L997.781 21.29C997.781 21.29 996.75 21.2803 995.625 21.2803C994.407 21.2803 994.212 21.8414 994.212 22.7728V25.2395H997.878L997.718 28.6175H994.212V38.0001H997.618C1000.05 38.0001 1002 36.0454 1002 33.6178V18.3823C1002 15.9547 1000.05 14 997.618 14H982.382L982.382 14Z" fill="#FAFBFC"/>
</g>
<path d="M1040 20.6881C1040.89 20.1522 1041.56 19.3083 1041.88 18.3141C1041.04 18.8139 1040.12 19.166 1039.16 19.3551C1038.51 18.6694 1037.65 18.216 1036.72 18.0647C1035.79 17.9134 1034.84 18.0726 1034 18.5178C1033.17 18.9629 1032.51 19.6694 1032.12 20.5282C1031.73 21.387 1031.63 22.3504 1031.84 23.2701C1030.13 23.1844 1028.47 22.741 1026.94 21.9685C1025.42 21.196 1024.07 20.1117 1023 18.7861C1022.45 19.7312 1022.28 20.8494 1022.53 21.9137C1022.77 22.9779 1023.42 23.9084 1024.33 24.5161C1023.64 24.4942 1022.98 24.3097 1022.38 23.9781V24.0321C1022.38 25.0231 1022.73 25.9835 1023.35 26.7504C1023.98 27.5174 1024.85 28.0437 1025.83 28.2401C1025.19 28.412 1024.53 28.4373 1023.89 28.3141C1024.16 29.1664 1024.7 29.9117 1025.41 30.4459C1026.13 30.9802 1027 31.2767 1027.9 31.2941C1026.38 32.4872 1024.5 33.1343 1022.57 33.1311C1022.22 33.1311 1021.88 33.1111 1021.54 33.0721C1023.5 34.3331 1025.79 35.0024 1028.12 35.0001C1029.73 35.0111 1031.32 34.7028 1032.81 34.093C1034.29 33.4833 1035.64 32.5842 1036.78 31.4481C1037.91 30.312 1038.81 28.9615 1039.42 27.475C1040.03 25.9885 1040.34 24.3957 1040.33 22.7891C1040.33 22.6031 1040.33 22.4181 1040.32 22.2341C1041.16 21.6267 1041.88 20.8743 1042.46 20.0121C1041.68 20.3591 1040.85 20.587 1040 20.6881V20.6881Z" fill="#FAFBFC"/>
<path d="M1062 15.719C1062 14.7695 1062.79 14 1063.76 14H1084.24C1085.21 14 1086 14.7695 1086 15.719V36.281C1086 37.2305 1085.21 38 1084.24 38H1063.76C1062.79 38 1062 37.2305 1062 36.281V15.719ZM1069.41 34.091V23.2535H1065.81V34.091H1069.41ZM1067.61 21.773C1068.87 21.773 1069.65 20.942 1069.65 19.901C1069.63 18.8375 1068.87 18.029 1067.64 18.029C1066.41 18.029 1065.6 18.839 1065.6 19.901C1065.6 20.942 1066.38 21.773 1067.59 21.773H1067.61V21.773ZM1074.98 34.091V28.0385C1074.98 27.7145 1075 27.3905 1075.1 27.1595C1075.36 26.513 1075.95 25.8425 1076.94 25.8425C1078.25 25.8425 1078.77 26.8355 1078.77 28.2935V34.091H1082.37V27.875C1082.37 24.545 1080.59 22.997 1078.22 22.997C1076.31 22.997 1075.46 24.047 1074.98 24.7865V24.824H1074.95C1074.96 24.8115 1074.97 24.799 1074.98 24.7865V23.2535H1071.38C1071.42 24.2705 1071.38 34.091 1071.38 34.091H1074.98Z" fill="#FAFBFC"/>
<g clip-path="url(#clip1_1_496)">
<path d="M1127.92 21.0837C1127.91 20.076 1127.72 19.0783 1127.36 18.1353C1127.06 17.3398 1126.58 16.6174 1125.98 16.0142C1125.38 15.411 1124.65 14.9402 1123.86 14.632C1122.92 14.2825 1121.94 14.0936 1120.94 14.0732C1119.66 14.016 1119.25 14 1116 14C1112.74 14 1112.33 14 1111.05 14.0732C1110.06 14.0937 1109.07 14.2827 1108.14 14.632C1107.35 14.94 1106.62 15.4107 1106.02 16.0139C1105.41 16.6172 1104.94 17.3397 1104.63 18.1353C1104.28 19.0655 1104.09 20.0487 1104.07 21.0425C1104.02 22.3238 1104 22.7296 1104 25.9787C1104 29.2279 1104 29.643 1104.07 30.915C1104.09 31.9102 1104.28 32.8921 1104.63 33.8248C1104.94 34.6202 1105.41 35.3424 1106.02 35.9454C1106.62 36.5484 1107.35 37.0188 1108.14 37.3268C1109.07 37.6903 1110.06 37.8927 1111.06 37.9255C1112.34 37.9827 1112.75 38 1116 38C1119.25 38 1119.67 38 1120.94 37.9255C1121.94 37.9059 1122.93 37.7174 1123.86 37.368C1124.65 37.0594 1125.38 36.5885 1125.98 35.9854C1126.59 35.3822 1127.06 34.66 1127.37 33.8647C1127.72 32.9334 1127.91 31.9514 1127.93 30.9549C1127.98 29.6749 1128 29.2691 1128 26.0186C1128 22.7695 1128 22.357 1127.92 21.0837ZM1115.99 32.1231C1112.59 32.1231 1109.83 29.3702 1109.83 25.9721C1109.83 22.5739 1112.59 19.821 1115.99 19.821C1117.62 19.821 1119.19 20.4691 1120.35 21.6226C1121.5 22.7762 1122.15 24.3407 1122.15 25.9721C1122.15 27.6034 1121.5 29.1679 1120.35 30.3215C1119.19 31.475 1117.62 32.1231 1115.99 32.1231ZM1122.4 21.0278C1122.21 21.028 1122.02 20.991 1121.85 20.919C1121.67 20.847 1121.51 20.7413 1121.38 20.6081C1121.25 20.4749 1121.14 20.3167 1121.07 20.1426C1121 19.9685 1120.96 19.7819 1120.96 19.5935C1120.96 19.4053 1121 19.2188 1121.07 19.0449C1121.14 18.871 1121.25 18.7129 1121.38 18.5798C1121.51 18.4467 1121.67 18.3411 1121.85 18.269C1122.02 18.197 1122.21 18.1599 1122.4 18.1599C1122.59 18.1599 1122.77 18.197 1122.95 18.269C1123.12 18.3411 1123.28 18.4467 1123.41 18.5798C1123.55 18.7129 1123.65 18.871 1123.72 19.0449C1123.8 19.2188 1123.83 19.4053 1123.83 19.5935C1123.83 20.3865 1123.19 21.0278 1122.4 21.0278Z" fill="#FAFBFC"/>
<path d="M1115.99 28.9821C1117.65 28.9821 1119 27.6376 1119 25.9791C1119 24.3206 1117.65 22.9761 1115.99 22.9761C1114.34 22.9761 1112.99 24.3206 1112.99 25.9791C1112.99 27.6376 1114.34 28.9821 1115.99 28.9821Z" fill="#FAFBFC"/>
</g>
<path d="M757.352 64.24C755.805 64.24 754.477 63.7067 753.368 62.64C752.269 61.5733 751.72 60.1333 751.72 58.32C751.72 57.104 751.997 56.0373 752.552 55.12C753.107 54.2027 753.805 53.5253 754.648 53.088C755.491 52.64 756.392 52.416 757.352 52.416C758.632 52.416 759.709 52.7413 760.584 53.392C761.469 54.032 762.056 54.9067 762.344 56.016L760.888 56.528C760.675 55.6747 760.264 55.0187 759.656 54.56C759.048 54.0907 758.28 53.856 757.352 53.856C756.243 53.856 755.293 54.2507 754.504 55.04C753.715 55.8187 753.32 56.912 753.32 58.32C753.32 59.728 753.715 60.8267 754.504 61.616C755.293 62.4053 756.243 62.8 757.352 62.8C758.28 62.8 759.053 62.5547 759.672 62.064C760.291 61.5627 760.723 60.9013 760.968 60.08L762.36 60.592C762.051 61.6907 761.453 62.576 760.568 63.248C759.693 63.9093 758.621 64.24 757.352 64.24ZM765.552 62.176C766.021 62.656 766.592 62.896 767.264 62.896C767.936 62.896 768.501 62.656 768.96 62.176C769.429 61.6853 769.664 61.008 769.664 60.144C769.664 59.2907 769.429 58.624 768.96 58.144C768.501 57.6533 767.936 57.408 767.264 57.408C766.592 57.408 766.021 57.6533 765.552 58.144C765.093 58.624 764.864 59.2907 764.864 60.144C764.864 61.008 765.093 61.6853 765.552 62.176ZM764.432 57.232C765.178 56.4533 766.122 56.064 767.264 56.064C768.405 56.064 769.344 56.4533 770.08 57.232C770.826 58 771.2 58.9707 771.2 60.144C771.2 61.328 770.832 62.3093 770.096 63.088C769.36 63.856 768.416 64.24 767.264 64.24C766.112 64.24 765.168 63.856 764.432 63.088C763.696 62.3093 763.328 61.328 763.328 60.144C763.328 58.9707 763.696 58 764.432 57.232ZM774.612 67.04H773.124V56.304H774.58V57.504C774.804 57.0987 775.14 56.768 775.588 56.512C776.036 56.256 776.558 56.128 777.156 56.128C778.265 56.128 779.129 56.5067 779.748 57.264C780.377 58.0213 780.692 58.9813 780.692 60.144C780.692 61.3173 780.366 62.288 779.716 63.056C779.076 63.824 778.206 64.208 777.108 64.208C776.542 64.208 776.041 64.0907 775.604 63.856C775.166 63.6213 774.836 63.3227 774.612 62.96V67.04ZM779.156 60.144C779.156 59.3653 778.948 58.7253 778.532 58.224C778.126 57.712 777.577 57.456 776.884 57.456C776.201 57.456 775.646 57.712 775.22 58.224C774.804 58.7253 774.596 59.3653 774.596 60.144C774.596 60.944 774.804 61.6 775.22 62.112C775.646 62.6133 776.201 62.864 776.884 62.864C777.566 62.864 778.116 62.6133 778.532 62.112C778.948 61.6 779.156 60.944 779.156 60.144ZM784.216 67.216H782.568L784.488 63.152L781.176 56.304H782.904L785.304 61.616L787.608 56.304H789.224L784.216 67.216ZM794.943 56.224V57.824C794.719 57.792 794.5 57.776 794.287 57.776C792.879 57.776 792.175 58.5653 792.175 60.144V64H790.671V56.304H792.143V57.648C792.612 56.6667 793.38 56.176 794.447 56.176C794.617 56.176 794.783 56.192 794.943 56.224ZM798.034 64H796.546V56.304H798.034V64ZM796.514 54.16C796.311 53.9467 796.21 53.6907 796.21 53.392C796.21 53.0933 796.311 52.8373 796.514 52.624C796.727 52.4107 796.983 52.304 797.282 52.304C797.58 52.304 797.836 52.4107 798.05 52.624C798.263 52.8267 798.37 53.0827 798.37 53.392C798.37 53.6907 798.263 53.9467 798.05 54.16C797.836 54.3627 797.58 54.464 797.282 54.464C796.983 54.464 796.727 54.3627 796.514 54.16ZM800.033 64.416L801.489 64.08C801.542 64.624 801.761 65.072 802.145 65.424C802.529 65.7867 803.009 65.968 803.585 65.968C805.153 65.968 805.937 65.136 805.937 63.472V62.368C805.745 62.7413 805.441 63.0453 805.025 63.28C804.619 63.5147 804.139 63.632 803.585 63.632C802.561 63.632 801.713 63.2853 801.041 62.592C800.379 61.888 800.049 60.992 800.049 59.904C800.049 58.848 800.379 57.9627 801.041 57.248C801.702 56.5227 802.55 56.16 803.585 56.16C804.758 56.16 805.547 56.5653 805.953 57.376V56.304H807.441V63.424C807.441 63.936 807.371 64.4107 807.233 64.848C807.105 65.296 806.897 65.7067 806.609 66.08C806.321 66.4533 805.915 66.7467 805.393 66.96C804.881 67.1733 804.278 67.28 803.585 67.28C802.635 67.28 801.83 67.008 801.169 66.464C800.507 65.9307 800.129 65.248 800.033 64.416ZM803.809 62.368C804.459 62.368 804.987 62.144 805.393 61.696C805.798 61.2373 806.001 60.64 806.001 59.904C806.001 59.168 805.798 58.576 805.393 58.128C804.987 57.6693 804.459 57.44 803.809 57.44C803.147 57.44 802.609 57.664 802.193 58.112C801.787 58.56 801.585 59.1573 801.585 59.904C801.585 60.6613 801.782 61.264 802.177 61.712C802.582 62.1493 803.126 62.368 803.809 62.368ZM811.347 59.472V64H809.843V52.416H811.347V57.2C811.859 56.4533 812.637 56.08 813.683 56.08C814.568 56.08 815.245 56.3627 815.715 56.928C816.195 57.4933 816.435 58.224 816.435 59.12V64H814.931V59.376C814.931 58.0853 814.333 57.44 813.139 57.44C812.584 57.44 812.152 57.632 811.843 58.016C811.533 58.3893 811.368 58.8747 811.347 59.472ZM820.843 53.872V56.304H822.507V57.664H820.843V61.664C820.843 62.0267 820.923 62.2933 821.083 62.464C821.254 62.6347 821.531 62.72 821.915 62.72C822.139 62.72 822.336 62.6987 822.507 62.656V63.936C822.251 64.032 821.91 64.08 821.483 64.08C820.822 64.08 820.299 63.888 819.915 63.504C819.531 63.12 819.339 62.5813 819.339 61.888V57.664H817.867V56.304H818.283C818.678 56.304 818.971 56.1973 819.163 55.984C819.366 55.76 819.467 55.472 819.467 55.12V53.872H820.843ZM830.53 54.944C829.645 55.8507 829.202 56.976 829.202 58.32C829.202 59.664 829.645 60.7947 830.53 61.712C831.416 62.6187 832.498 63.072 833.778 63.072C835.058 63.072 836.141 62.6187 837.026 61.712C837.912 60.7947 838.354 59.664 838.354 58.32C838.354 56.976 837.912 55.8507 837.026 54.944C836.141 54.0373 835.058 53.584 833.778 53.584C832.498 53.584 831.416 54.0373 830.53 54.944ZM829.65 62.512C828.52 61.3493 827.954 59.952 827.954 58.32C827.954 56.688 828.52 55.296 829.65 54.144C830.792 52.992 832.168 52.416 833.778 52.416C835.4 52.416 836.781 52.9973 837.922 54.16C839.074 55.312 839.65 56.6987 839.65 58.32C839.65 59.952 839.074 61.3493 837.922 62.512C836.781 63.664 835.4 64.24 833.778 64.24C832.168 64.24 830.792 63.664 829.65 62.512ZM833.81 56.096C833.277 56.096 832.824 56.288 832.45 56.672C832.088 57.056 831.906 57.5947 831.906 58.288C831.906 58.9813 832.088 59.5253 832.45 59.92C832.824 60.304 833.282 60.496 833.826 60.496C834.733 60.496 835.314 60.064 835.57 59.2L836.658 59.68C836.477 60.2027 836.146 60.6613 835.666 61.056C835.186 61.44 834.573 61.632 833.826 61.632C832.92 61.632 832.162 61.312 831.554 60.672C830.957 60.032 830.658 59.2373 830.658 58.288C830.658 57.3173 830.957 56.5227 831.554 55.904C832.152 55.2747 832.904 54.96 833.81 54.96C834.578 54.96 835.197 55.1573 835.666 55.552C836.146 55.9467 836.461 56.416 836.61 56.96L835.49 57.424C835.405 57.0613 835.224 56.752 834.946 56.496C834.68 56.2293 834.301 56.096 833.81 56.096ZM855.639 64H854.375L854.231 62.4C853.954 62.9013 853.5 63.3333 852.871 63.696C852.242 64.0587 851.484 64.24 850.599 64.24C849.628 64.24 848.732 64.0213 847.911 63.584C847.09 63.136 846.412 62.4533 845.879 61.536C845.356 60.6187 845.095 59.5467 845.095 58.32C845.095 57.0933 845.372 56.0213 845.927 55.104C846.482 54.1867 847.175 53.5093 848.007 53.072C848.85 52.6347 849.751 52.416 850.711 52.416C851.927 52.416 852.983 52.7307 853.879 53.36C854.786 53.9787 855.404 54.8053 855.735 55.84L854.311 56.448C854.055 55.6267 853.607 54.992 852.967 54.544C852.338 54.0853 851.586 53.856 850.711 53.856C849.612 53.856 848.668 54.2453 847.879 55.024C847.09 55.8027 846.695 56.9013 846.695 58.32C846.695 59.7493 847.079 60.8587 847.847 61.648C848.626 62.4267 849.559 62.816 850.647 62.816C851.244 62.816 851.772 62.72 852.231 62.528C852.7 62.336 853.063 62.0853 853.319 61.776C853.586 61.456 853.783 61.136 853.911 60.816C854.05 60.496 854.13 60.176 854.151 59.856H850.215V58.448H855.639V64ZM858.865 59.36H863.073C863.052 58.784 862.86 58.3147 862.497 57.952C862.135 57.5787 861.623 57.392 860.961 57.392C860.364 57.392 859.873 57.5893 859.489 57.984C859.105 58.368 858.897 58.8267 858.865 59.36ZM863.297 61.36L864.593 61.808C864.369 62.5227 863.953 63.1093 863.345 63.568C862.737 64.016 862.001 64.24 861.137 64.24C860.06 64.24 859.143 63.872 858.385 63.136C857.639 62.3893 857.265 61.3867 857.265 60.128C857.265 58.9547 857.628 57.984 858.353 57.216C859.079 56.448 859.943 56.064 860.945 56.064C862.108 56.064 863.015 56.432 863.665 57.168C864.316 57.8933 864.641 58.8693 864.641 60.096C864.641 60.288 864.631 60.448 864.609 60.576H858.817C858.828 61.2587 859.052 61.8187 859.489 62.256C859.937 62.6933 860.487 62.912 861.137 62.912C862.236 62.912 862.956 62.3947 863.297 61.36ZM868.065 59.552V64H866.561V56.304H868.033V57.408C868.545 56.5227 869.335 56.08 870.401 56.08C871.287 56.08 871.964 56.3627 872.433 56.928C872.913 57.4933 873.153 58.224 873.153 59.12V64H871.649V59.376C871.649 58.0853 871.052 57.44 869.857 57.44C869.292 57.44 868.849 57.6427 868.529 58.048C868.22 58.4427 868.065 58.944 868.065 59.552ZM876.522 59.36H880.73C880.708 58.784 880.516 58.3147 880.154 57.952C879.791 57.5787 879.279 57.392 878.618 57.392C878.02 57.392 877.53 57.5893 877.146 57.984C876.762 58.368 876.554 58.8267 876.522 59.36ZM880.954 61.36L882.25 61.808C882.026 62.5227 881.61 63.1093 881.002 63.568C880.394 64.016 879.658 64.24 878.794 64.24C877.716 64.24 876.799 63.872 876.042 63.136C875.295 62.3893 874.922 61.3867 874.922 60.128C874.922 58.9547 875.284 57.984 876.01 57.216C876.735 56.448 877.599 56.064 878.602 56.064C879.764 56.064 880.671 56.432 881.322 57.168C881.972 57.8933 882.298 58.8693 882.298 60.096C882.298 60.288 882.287 60.448 882.266 60.576H876.474C876.484 61.2587 876.708 61.8187 877.146 62.256C877.594 62.6933 878.143 62.912 878.794 62.912C879.892 62.912 880.612 62.3947 880.954 61.36ZM883.498 62L884.858 61.52C884.911 61.936 885.092 62.2827 885.402 62.56C885.711 62.8267 886.127 62.96 886.65 62.96C887.055 62.96 887.375 62.864 887.61 62.672C887.844 62.4693 887.962 62.224 887.962 61.936C887.962 61.424 887.631 61.0933 886.97 60.944L885.658 60.656C885.06 60.528 884.591 60.272 884.25 59.888C883.908 59.504 883.738 59.04 883.738 58.496C883.738 57.8347 884.004 57.264 884.538 56.784C885.082 56.304 885.727 56.064 886.474 56.064C886.964 56.064 887.402 56.1387 887.786 56.288C888.17 56.4267 888.468 56.6133 888.682 56.848C888.895 57.0827 889.055 57.3013 889.162 57.504C889.268 57.7067 889.348 57.9147 889.402 58.128L888.074 58.624C888.052 58.496 888.015 58.3733 887.962 58.256C887.908 58.128 887.823 57.9893 887.706 57.84C887.599 57.6907 887.439 57.5733 887.226 57.488C887.012 57.392 886.762 57.344 886.474 57.344C886.1 57.344 885.791 57.4453 885.546 57.648C885.311 57.8507 885.194 58.0907 885.194 58.368C885.194 58.8587 885.487 59.168 886.074 59.296L887.322 59.568C888.004 59.7173 888.527 59.9947 888.89 60.4C889.263 60.7947 889.45 61.28 889.45 61.856C889.45 62.464 889.199 63.0133 888.698 63.504C888.207 63.9947 887.519 64.24 886.634 64.24C885.684 64.24 884.943 64.0053 884.41 63.536C883.876 63.056 883.572 62.544 883.498 62ZM893.294 67.216H891.646L893.566 63.152L890.254 56.304H891.982L894.382 61.616L896.686 56.304H898.302L893.294 67.216ZM898.873 62L900.233 61.52C900.286 61.936 900.467 62.2827 900.777 62.56C901.086 62.8267 901.502 62.96 902.025 62.96C902.43 62.96 902.75 62.864 902.985 62.672C903.219 62.4693 903.337 62.224 903.337 61.936C903.337 61.424 903.006 61.0933 902.345 60.944L901.033 60.656C900.435 60.528 899.966 60.272 899.625 59.888C899.283 59.504 899.113 59.04 899.113 58.496C899.113 57.8347 899.379 57.264 899.913 56.784C900.457 56.304 901.102 56.064 901.849 56.064C902.339 56.064 902.777 56.1387 903.161 56.288C903.545 56.4267 903.843 56.6133 904.057 56.848C904.27 57.0827 904.43 57.3013 904.537 57.504C904.643 57.7067 904.723 57.9147 904.777 58.128L903.449 58.624C903.427 58.496 903.39 58.3733 903.337 58.256C903.283 58.128 903.198 57.9893 903.081 57.84C902.974 57.6907 902.814 57.5733 902.601 57.488C902.387 57.392 902.137 57.344 901.849 57.344C901.475 57.344 901.166 57.4453 900.921 57.648C900.686 57.8507 900.569 58.0907 900.569 58.368C900.569 58.8587 900.862 59.168 901.449 59.296L902.697 59.568C903.379 59.7173 903.902 59.9947 904.265 60.4C904.638 60.7947 904.825 61.28 904.825 61.856C904.825 62.464 904.574 63.0133 904.073 63.504C903.582 63.9947 902.894 64.24 902.009 64.24C901.059 64.24 900.318 64.0053 899.785 63.536C899.251 63.056 898.947 62.544 898.873 62ZM912.555 62.608H914.875C915.984 62.608 916.902 62.24 917.627 61.504C918.363 60.768 918.731 59.7173 918.731 58.352C918.731 56.976 918.368 55.9147 917.643 55.168C916.928 54.4213 916.016 54.048 914.907 54.048H912.555V62.608ZM914.923 64H910.987V52.656H914.955C916.48 52.656 917.76 53.1627 918.795 54.176C919.83 55.1787 920.347 56.5707 920.347 58.352C920.347 60.1227 919.824 61.5093 918.779 62.512C917.734 63.504 916.448 64 914.923 64ZM923.319 59.36H927.527C927.505 58.784 927.313 58.3147 926.951 57.952C926.588 57.5787 926.076 57.392 925.415 57.392C924.817 57.392 924.327 57.5893 923.943 57.984C923.559 58.368 923.351 58.8267 923.319 59.36ZM927.751 61.36L929.047 61.808C928.823 62.5227 928.407 63.1093 927.799 63.568C927.191 64.016 926.455 64.24 925.591 64.24C924.513 64.24 923.596 63.872 922.839 63.136C922.092 62.3893 921.719 61.3867 921.719 60.128C921.719 58.9547 922.081 57.984 922.807 57.216C923.532 56.448 924.396 56.064 925.399 56.064C926.561 56.064 927.468 56.432 928.119 57.168C928.769 57.8933 929.095 58.8693 929.095 60.096C929.095 60.288 929.084 60.448 929.062 60.576H923.271C923.281 61.2587 923.505 61.8187 923.943 62.256C924.391 62.6933 924.94 62.912 925.591 62.912C926.689 62.912 927.409 62.3947 927.751 61.36ZM937.45 56.304L934.378 64H932.858L929.738 56.304H931.434L933.626 62.24L935.834 56.304H937.45ZM946.281 55.232L944.873 55.728C944.799 55.2373 944.559 54.7947 944.153 54.4C943.748 53.9947 943.188 53.792 942.473 53.792C941.844 53.792 941.321 53.9733 940.905 54.336C940.489 54.6987 940.281 55.1467 940.281 55.68C940.281 56.096 940.404 56.448 940.649 56.736C940.905 57.024 941.268 57.2213 941.737 57.328L943.433 57.696C944.372 57.8987 945.097 58.2827 945.609 58.848C946.121 59.4027 946.377 60.08 946.377 60.88C946.377 61.7973 946.015 62.5867 945.289 63.248C944.564 63.9093 943.62 64.24 942.457 64.24C941.188 64.24 940.191 63.9093 939.465 63.248C938.751 62.576 938.335 61.7813 938.217 60.864L939.721 60.384C939.785 61.0667 940.052 61.6427 940.521 62.112C940.991 62.5813 941.631 62.816 942.441 62.816C943.188 62.816 943.764 62.6453 944.169 62.304C944.575 61.9627 944.777 61.5307 944.777 61.008C944.777 60.5813 944.633 60.2133 944.345 59.904C944.057 59.584 943.636 59.3653 943.081 59.248L941.465 58.896C940.623 58.7147 939.951 58.3573 939.449 57.824C938.948 57.2907 938.697 56.6133 938.697 55.792C938.697 54.896 939.06 54.112 939.785 53.44C940.521 52.7573 941.407 52.416 942.441 52.416C943.604 52.416 944.495 52.6987 945.113 53.264C945.732 53.8293 946.121 54.4853 946.281 55.232ZM950.234 53.872V56.304H951.898V57.664H950.234V61.664C950.234 62.0267 950.314 62.2933 950.474 62.464C950.644 62.6347 950.922 62.72 951.306 62.72C951.53 62.72 951.727 62.6987 951.898 62.656V63.936C951.642 64.032 951.3 64.08 950.874 64.08C950.212 64.08 949.69 63.888 949.306 63.504C948.922 63.12 948.73 62.5813 948.73 61.888V57.664H947.258V56.304H947.674C948.068 56.304 948.362 56.1973 948.554 55.984C948.756 55.76 948.858 55.472 948.858 55.12V53.872H950.234ZM958.977 63.072C958.774 63.456 958.465 63.7493 958.049 63.952C957.633 64.144 957.185 64.24 956.705 64.24C955.83 64.24 955.132 63.952 954.609 63.376C954.086 62.7893 953.825 62.048 953.825 61.152V56.304H955.329V60.928C955.329 61.504 955.468 61.9787 955.745 62.352C956.033 62.7253 956.476 62.912 957.073 62.912C957.67 62.912 958.124 62.736 958.433 62.384C958.742 62.0213 958.897 61.5413 958.897 60.944V56.304H960.401V62.576C960.401 63.0773 960.428 63.552 960.481 64H959.041C958.998 63.7653 958.977 63.456 958.977 63.072ZM963.785 60.128C963.785 60.9387 963.983 61.6 964.377 62.112C964.783 62.624 965.337 62.88 966.041 62.88C966.713 62.88 967.252 62.6187 967.657 62.096C968.063 61.5733 968.265 60.9067 968.265 60.096C968.265 59.296 968.068 58.6507 967.673 58.16C967.279 57.6693 966.74 57.424 966.057 57.424C965.375 57.424 964.825 57.6747 964.409 58.176C963.993 58.6773 963.785 59.328 963.785 60.128ZM968.281 62.96V62.832C968.079 63.2267 967.769 63.5573 967.353 63.824C966.948 64.08 966.463 64.208 965.897 64.208C964.799 64.208 963.913 63.824 963.241 63.056C962.58 62.2773 962.249 61.3013 962.249 60.128C962.249 59.008 962.591 58.0587 963.273 57.28C963.956 56.4907 964.831 56.096 965.897 56.096C966.527 56.096 967.039 56.224 967.433 56.48C967.828 56.7253 968.1 57.0293 968.249 57.392V52.416H969.737V62.576C969.737 63.0987 969.764 63.5733 969.817 64H968.361C968.308 63.7013 968.281 63.3547 968.281 62.96ZM973.784 64H972.296V56.304H973.784V64ZM972.264 54.16C972.061 53.9467 971.96 53.6907 971.96 53.392C971.96 53.0933 972.061 52.8373 972.264 52.624C972.477 52.4107 972.733 52.304 973.032 52.304C973.33 52.304 973.586 52.4107 973.8 52.624C974.013 52.8267 974.12 53.0827 974.12 53.392C974.12 53.6907 974.013 53.9467 973.8 54.16C973.586 54.3627 973.33 54.464 973.032 54.464C972.733 54.464 972.477 54.3627 972.264 54.16ZM977.927 62.176C978.396 62.656 978.967 62.896 979.639 62.896C980.311 62.896 980.876 62.656 981.335 62.176C981.804 61.6853 982.039 61.008 982.039 60.144C982.039 59.2907 981.804 58.624 981.335 58.144C980.876 57.6533 980.311 57.408 979.639 57.408C978.967 57.408 978.396 57.6533 977.927 58.144C977.468 58.624 977.239 59.2907 977.239 60.144C977.239 61.008 977.468 61.6853 977.927 62.176ZM976.807 57.232C977.553 56.4533 978.497 56.064 979.639 56.064C980.78 56.064 981.719 56.4533 982.455 57.232C983.201 58 983.575 58.9707 983.575 60.144C983.575 61.328 983.207 62.3093 982.471 63.088C981.735 63.856 980.791 64.24 979.639 64.24C978.487 64.24 977.543 63.856 976.807 63.088C976.071 62.3093 975.703 61.328 975.703 60.144C975.703 58.9707 976.071 58 976.807 57.232ZM989.659 63.76C989.445 63.5467 989.339 63.2853 989.339 62.976C989.339 62.6667 989.445 62.4053 989.659 62.192C989.872 61.968 990.133 61.856 990.443 61.856C990.752 61.856 991.013 61.968 991.227 62.192C991.451 62.4053 991.563 62.6667 991.563 62.976C991.563 63.2853 991.451 63.5467 991.227 63.76C991.013 63.9733 990.752 64.08 990.443 64.08C990.133 64.08 989.872 63.9733 989.659 63.76ZM1005.98 64L1004.75 60.832H999.728L998.528 64H996.848L1001.36 52.656H1003.17L1007.68 64H1005.98ZM1002.22 54.288L1000.29 59.376H1004.19L1002.22 54.288ZM1010.63 64H1009.12V52.416H1010.63V64ZM1014.69 64H1013.19V52.416H1014.69V64ZM1025.52 56.224V57.824C1025.3 57.792 1025.08 57.776 1024.86 57.776C1023.46 57.776 1022.75 58.5653 1022.75 60.144V64H1021.25V56.304H1022.72V57.648C1023.19 56.6667 1023.96 56.176 1025.02 56.176C1025.2 56.176 1025.36 56.192 1025.52 56.224ZM1028.61 64H1027.12V56.304H1028.61V64ZM1027.09 54.16C1026.89 53.9467 1026.79 53.6907 1026.79 53.392C1026.79 53.0933 1026.89 52.8373 1027.09 52.624C1027.31 52.4107 1027.56 52.304 1027.86 52.304C1028.16 52.304 1028.41 52.4107 1028.63 52.624C1028.84 52.8267 1028.95 53.0827 1028.95 53.392C1028.95 53.6907 1028.84 53.9467 1028.63 54.16C1028.41 54.3627 1028.16 54.464 1027.86 54.464C1027.56 54.464 1027.31 54.3627 1027.09 54.16ZM1030.61 64.416L1032.07 64.08C1032.12 64.624 1032.34 65.072 1032.72 65.424C1033.11 65.7867 1033.59 65.968 1034.16 65.968C1035.73 65.968 1036.51 65.136 1036.51 63.472V62.368C1036.32 62.7413 1036.02 63.0453 1035.6 63.28C1035.2 63.5147 1034.72 63.632 1034.16 63.632C1033.14 63.632 1032.29 63.2853 1031.62 62.592C1030.96 61.888 1030.63 60.992 1030.63 59.904C1030.63 58.848 1030.96 57.9627 1031.62 57.248C1032.28 56.5227 1033.13 56.16 1034.16 56.16C1035.34 56.16 1036.13 56.5653 1036.53 57.376V56.304H1038.02V63.424C1038.02 63.936 1037.95 64.4107 1037.81 64.848C1037.68 65.296 1037.47 65.7067 1037.19 66.08C1036.9 66.4533 1036.49 66.7467 1035.97 66.96C1035.46 67.1733 1034.86 67.28 1034.16 67.28C1033.21 67.28 1032.41 67.008 1031.75 66.464C1031.09 65.9307 1030.71 65.248 1030.61 64.416ZM1034.39 62.368C1035.04 62.368 1035.57 62.144 1035.97 61.696C1036.38 61.2373 1036.58 60.64 1036.58 59.904C1036.58 59.168 1036.38 58.576 1035.97 58.128C1035.57 57.6693 1035.04 57.44 1034.39 57.44C1033.73 57.44 1033.19 57.664 1032.77 58.112C1032.37 58.56 1032.16 59.1573 1032.16 59.904C1032.16 60.6613 1032.36 61.264 1032.75 61.712C1033.16 62.1493 1033.7 62.368 1034.39 62.368ZM1041.92 59.472V64H1040.42V52.416H1041.92V57.2C1042.44 56.4533 1043.22 56.08 1044.26 56.08C1045.15 56.08 1045.82 56.3627 1046.29 56.928C1046.77 57.4933 1047.01 58.224 1047.01 59.12V64H1045.51V59.376C1045.51 58.0853 1044.91 57.44 1043.72 57.44C1043.16 57.44 1042.73 57.632 1042.42 58.016C1042.11 58.3893 1041.95 58.8747 1041.92 59.472ZM1051.42 53.872V56.304H1053.09V57.664H1051.42V61.664C1051.42 62.0267 1051.5 62.2933 1051.66 62.464C1051.83 62.6347 1052.11 62.72 1052.49 62.72C1052.72 62.72 1052.91 62.6987 1053.09 62.656V63.936C1052.83 64.032 1052.49 64.08 1052.06 64.08C1051.4 64.08 1050.88 63.888 1050.49 63.504C1050.11 63.12 1049.92 62.5813 1049.92 61.888V57.664H1048.45V56.304H1048.86C1049.26 56.304 1049.55 56.1973 1049.74 55.984C1049.94 55.76 1050.05 55.472 1050.05 55.12V53.872H1051.42ZM1054.45 62L1055.81 61.52C1055.86 61.936 1056.05 62.2827 1056.35 62.56C1056.66 62.8267 1057.08 62.96 1057.6 62.96C1058.01 62.96 1058.33 62.864 1058.56 62.672C1058.8 62.4693 1058.91 62.224 1058.91 61.936C1058.91 61.424 1058.58 61.0933 1057.92 60.944L1056.61 60.656C1056.01 60.528 1055.54 60.272 1055.2 59.888C1054.86 59.504 1054.69 59.04 1054.69 58.496C1054.69 57.8347 1054.96 57.264 1055.49 56.784C1056.03 56.304 1056.68 56.064 1057.43 56.064C1057.92 56.064 1058.35 56.1387 1058.74 56.288C1059.12 56.4267 1059.42 56.6133 1059.63 56.848C1059.85 57.0827 1060.01 57.3013 1060.11 57.504C1060.22 57.7067 1060.3 57.9147 1060.35 58.128L1059.03 58.624C1059.01 58.496 1058.97 58.3733 1058.91 58.256C1058.86 58.128 1058.78 57.9893 1058.66 57.84C1058.55 57.6907 1058.39 57.5733 1058.18 57.488C1057.97 57.392 1057.71 57.344 1057.43 57.344C1057.05 57.344 1056.74 57.4453 1056.5 57.648C1056.26 57.8507 1056.15 58.0907 1056.15 58.368C1056.15 58.8587 1056.44 59.168 1057.03 59.296L1058.27 59.568C1058.96 59.7173 1059.48 59.9947 1059.84 60.4C1060.22 60.7947 1060.4 61.28 1060.4 61.856C1060.4 62.464 1060.15 63.0133 1059.65 63.504C1059.16 63.9947 1058.47 64.24 1057.59 64.24C1056.64 64.24 1055.9 64.0053 1055.36 63.536C1054.83 63.056 1054.53 62.544 1054.45 62ZM1070.68 56.224V57.824C1070.45 57.792 1070.23 57.776 1070.02 57.776C1068.61 57.776 1067.91 58.5653 1067.91 60.144V64H1066.41V56.304H1067.88V57.648C1068.35 56.6667 1069.11 56.176 1070.18 56.176C1070.35 56.176 1070.52 56.192 1070.68 56.224ZM1073.18 59.36H1077.39C1077.36 58.784 1077.17 58.3147 1076.81 57.952C1076.45 57.5787 1075.94 57.392 1075.27 57.392C1074.68 57.392 1074.19 57.5893 1073.8 57.984C1073.42 58.368 1073.21 58.8267 1073.18 59.36ZM1077.61 61.36L1078.91 61.808C1078.68 62.5227 1078.27 63.1093 1077.66 63.568C1077.05 64.016 1076.31 64.24 1075.45 64.24C1074.37 64.24 1073.46 63.872 1072.7 63.136C1071.95 62.3893 1071.58 61.3867 1071.58 60.128C1071.58 58.9547 1071.94 57.984 1072.67 57.216C1073.39 56.448 1074.26 56.064 1075.26 56.064C1076.42 56.064 1077.33 56.432 1077.98 57.168C1078.63 57.8933 1078.95 58.8693 1078.95 60.096C1078.95 60.288 1078.94 60.448 1078.92 60.576H1073.13C1073.14 61.2587 1073.36 61.8187 1073.8 62.256C1074.25 62.6933 1074.8 62.912 1075.45 62.912C1076.55 62.912 1077.27 62.3947 1077.61 61.36ZM1080.15 62L1081.51 61.52C1081.57 61.936 1081.75 62.2827 1082.06 62.56C1082.37 62.8267 1082.78 62.96 1083.31 62.96C1083.71 62.96 1084.03 62.864 1084.27 62.672C1084.5 62.4693 1084.62 62.224 1084.62 61.936C1084.62 61.424 1084.29 61.0933 1083.63 60.944L1082.31 60.656C1081.72 60.528 1081.25 60.272 1080.91 59.888C1080.56 59.504 1080.39 59.04 1080.39 58.496C1080.39 57.8347 1080.66 57.264 1081.19 56.784C1081.74 56.304 1082.38 56.064 1083.13 56.064C1083.62 56.064 1084.06 56.1387 1084.44 56.288C1084.83 56.4267 1085.12 56.6133 1085.34 56.848C1085.55 57.0827 1085.71 57.3013 1085.82 57.504C1085.92 57.7067 1086 57.9147 1086.06 58.128L1084.73 58.624C1084.71 58.496 1084.67 58.3733 1084.62 58.256C1084.56 58.128 1084.48 57.9893 1084.36 57.84C1084.26 57.6907 1084.1 57.5733 1083.88 57.488C1083.67 57.392 1083.42 57.344 1083.13 57.344C1082.76 57.344 1082.45 57.4453 1082.2 57.648C1081.97 57.8507 1081.85 58.0907 1081.85 58.368C1081.85 58.8587 1082.14 59.168 1082.73 59.296L1083.98 59.568C1084.66 59.7173 1085.18 59.9947 1085.55 60.4C1085.92 60.7947 1086.11 61.28 1086.11 61.856C1086.11 62.464 1085.86 63.0133 1085.35 63.504C1084.86 63.9947 1084.18 64.24 1083.29 64.24C1082.34 64.24 1081.6 64.0053 1081.07 63.536C1080.53 63.056 1080.23 62.544 1080.15 62ZM1089.01 59.36H1093.21C1093.19 58.784 1093 58.3147 1092.64 57.952C1092.28 57.5787 1091.76 57.392 1091.1 57.392C1090.5 57.392 1090.01 57.5893 1089.63 57.984C1089.25 58.368 1089.04 58.8267 1089.01 59.36ZM1093.44 61.36L1094.73 61.808C1094.51 62.5227 1094.09 63.1093 1093.49 63.568C1092.88 64.016 1092.14 64.24 1091.28 64.24C1090.2 64.24 1089.28 63.872 1088.53 63.136C1087.78 62.3893 1087.41 61.3867 1087.41 60.128C1087.41 58.9547 1087.77 57.984 1088.49 57.216C1089.22 56.448 1090.08 56.064 1091.09 56.064C1092.25 56.064 1093.16 56.432 1093.81 57.168C1094.46 57.8933 1094.78 58.8693 1094.78 60.096C1094.78 60.288 1094.77 60.448 1094.75 60.576H1088.96C1088.97 61.2587 1089.19 61.8187 1089.63 62.256C1090.08 62.6933 1090.63 62.912 1091.28 62.912C1092.38 62.912 1093.1 62.3947 1093.44 61.36ZM1100.97 56.224V57.824C1100.75 57.792 1100.53 57.776 1100.32 57.776C1098.91 57.776 1098.21 58.5653 1098.21 60.144V64H1096.7V56.304H1098.17V57.648C1098.64 56.6667 1099.41 56.176 1100.48 56.176C1100.65 56.176 1100.81 56.192 1100.97 56.224ZM1109.4 56.304L1106.33 64H1104.81L1101.69 56.304H1103.39L1105.58 62.24L1107.79 56.304H1109.4ZM1111.58 59.36H1115.79C1115.77 58.784 1115.58 58.3147 1115.22 57.952C1114.85 57.5787 1114.34 57.392 1113.68 57.392C1113.08 57.392 1112.59 57.5893 1112.21 57.984C1111.82 58.368 1111.62 58.8267 1111.58 59.36ZM1116.02 61.36L1117.31 61.808C1117.09 62.5227 1116.67 63.1093 1116.06 63.568C1115.46 64.016 1114.72 64.24 1113.86 64.24C1112.78 64.24 1111.86 63.872 1111.1 63.136C1110.36 62.3893 1109.98 61.3867 1109.98 60.128C1109.98 58.9547 1110.35 57.984 1111.07 57.216C1111.8 56.448 1112.66 56.064 1113.66 56.064C1114.83 56.064 1115.73 56.432 1116.38 57.168C1117.03 57.8933 1117.36 58.8693 1117.36 60.096C1117.36 60.288 1117.35 60.448 1117.33 60.576H1111.54C1111.55 61.2587 1111.77 61.8187 1112.21 62.256C1112.66 62.6933 1113.21 62.912 1113.86 62.912C1114.95 62.912 1115.67 62.3947 1116.02 61.36ZM1120.18 60.128C1120.18 60.9387 1120.37 61.6 1120.77 62.112C1121.17 62.624 1121.73 62.88 1122.43 62.88C1123.1 62.88 1123.64 62.6187 1124.05 62.096C1124.45 61.5733 1124.66 60.9067 1124.66 60.096C1124.66 59.296 1124.46 58.6507 1124.06 58.16C1123.67 57.6693 1123.13 57.424 1122.45 57.424C1121.77 57.424 1121.22 57.6747 1120.8 58.176C1120.38 58.6773 1120.18 59.328 1120.18 60.128ZM1124.67 62.96V62.832C1124.47 63.2267 1124.16 63.5573 1123.74 63.824C1123.34 64.08 1122.85 64.208 1122.29 64.208C1121.19 64.208 1120.3 63.824 1119.63 63.056C1118.97 62.2773 1118.64 61.3013 1118.64 60.128C1118.64 59.008 1118.98 58.0587 1119.66 57.28C1120.35 56.4907 1121.22 56.096 1122.29 56.096C1122.92 56.096 1123.43 56.224 1123.82 56.48C1124.22 56.7253 1124.49 57.0293 1124.64 57.392V52.416H1126.13V62.576C1126.13 63.0987 1126.15 63.5733 1126.21 64H1124.75C1124.7 63.7013 1124.67 63.3547 1124.67 62.96Z" fill="#FAFBFC"/>
<defs>
<clipPath id="clip0_1_496">
<rect width="24" height="24" fill="white" transform="translate(978 14)"/>
</clipPath>
<clipPath id="clip1_1_496">
<rect width="24" height="24" fill="white" transform="translate(1104 14)"/>
</clipPath>
</defs>
</svg>
